<?xml version="1.0" standalone="no"?>
<!DOCTYPE svg PUBLIC "-//W3C//DTD SVG 1.1//EN" "http://www.w3.org/Graphics/SVG/1.1/DTD/svg11.dtd" >
<!--
2013-9-30: Created.
-->
<svg>
<metadata>
Created by iconfont
</metadata>
<defs>

<font id="iconfont" horiz-adv-x="1024" >
  <font-face
    font-family="iconfont"
    font-weight="500"
    font-stretch="normal"
    units-per-em="1024"
    ascent="896"
    descent="-128"
  />
    <missing-glyph />
    
    <glyph glyph-name="x" unicode="x" horiz-adv-x="1001"
d="M281 543q-27 -1 -53 -1h-83q-18 0 -36.5 -6t-32.5 -18.5t-23 -32t-9 -45.5v-76h912v41q0 16 -0.5 30t-0.5 18q0 13 -5 29t-17 29.5t-31.5 22.5t-49.5 9h-133v-97h-438v97zM955 310v-52q0 -23 0.5 -52t0.5 -58t-10.5 -47.5t-26 -30t-33 -16t-31.5 -4.5q-14 -1 -29.5 -0.5
t-29.5 0.5h-32l-45 128h-439l-44 -128h-29h-34q-20 0 -45 1q-25 0 -41 9.5t-25.5 23t-13.5 29.5t-4 30v167h911zM163 247q-12 0 -21 -8.5t-9 -21.5t9 -21.5t21 -8.5q13 0 22 8.5t9 21.5t-9 21.5t-22 8.5zM316 123q-8 -26 -14 -48q-5 -19 -10.5 -37t-7.5 -25t-3 -15t1 -14.5
t9.5 -10.5t21.5 -4h37h67h81h80h64h36q23 0 34 12t2 38q-5 13 -9.5 30.5t-9.5 34.5q-5 19 -11 39h-368zM336 498v228q0 11 2.5 23t10 21.5t20.5 15.5t34 6h188q31 0 51.5 -14.5t20.5 -52.5v-227h-327z" />
    

    
    <glyph glyph-name="meishi" unicode="&#58880;" d="M257.562397 825.641559c-109.634355 0-196.072478-123.464963-196.072478-275.753391 0-135.093814 62.621742-247.458975 154.967654-271.151583 11.721429-2.983961 1.896264-286.35382 1.896264-286.35382s1.64759-46.140876 36.752525-45.64355c43.748132 0 43.219061 42.782386 43.219061 42.782386s-5.036919 288.903899 1.275092 290.831808c89.45393 26.800389 154.066084 137.301086 154.066084 269.534759C453.665575 702.176596 367.227452 825.641559 257.562397 825.641559zM904.638721 587.882504 806.572293 587.882504 767.395457 825.641559 733.068268 587.882504l-80.842455 0L573.779015 823.184601l-2.456036-232.845139c0 0-7.36913-156.858514 80.903856-156.858514l78.416097 0 0-450.861548c0-21.702278 17.53814-39.237653 39.241307-39.237653 21.639719 0 36.6901 17.535375 36.6901 39.237653L806.57434 433.480948l80.965257 0c0 0 75.991785-9.79304 75.991785 156.858514L963.531383 825.641559 904.638721 587.882504z"  horiz-adv-x="1024" />

    
    <glyph glyph-name="guanwangicon31339" unicode="&#58985;" d="M513.28 800c-282.88 0-512-229.12-512-512s229.12-512 512-512c282.88 0 512 229.12 512 512-0.64 282.88-229.76 512-512 512zM257.28 209.28c-43.52 0-78.72 35.2-78.72 78.72s35.2 78.72 78.72 78.72c43.52 0 78.72-35.2 78.72-78.72 0-43.52-35.2-78.72-78.72-78.72zM513.28 209.28c-43.52 0-78.72 35.2-78.72 78.72s35.2 78.72 78.72 78.72c43.52 0 78.72-35.2 78.72-78.72 0-43.52-35.2-78.72-78.72-78.72zM769.28 209.28c-43.52 0-78.72 35.2-78.72 78.72s35.2 78.72 78.72 78.72c43.52 0 78.72-35.2 78.72-78.72 0-43.52-35.2-78.72-78.72-78.72z"  horiz-adv-x="1026" />

    
    <glyph glyph-name="wodetuandui" unicode="&#59043;" d="M786.139429 334.852571C848.274286 383.821714 888.429714 459.634286 888.429714 544.845714 888.429714 692.155429 768.914286 811.963429 622.006857 811.963429 475.062857 811.963429 355.584 692.155429 355.584 544.845714 355.584 459.634286 395.702857 383.821714 457.874286 334.852571 294.070857 269.243429 177.956571 108.841143 177.956571-78.441143L177.956571-167.456C177.956571-192.068571 197.814857-211.963429 222.354286-211.963429L1021.659429-211.963429C1046.162286-211.963429 1066.020571-192.068571 1066.020571-167.456L1066.020571-78.441143C1066.020571 108.914286 949.906286 269.243429 786.139429 334.852571L786.139429 334.852571 786.139429 334.852571ZM429.275429 545.211429C429.275429 651.780571 515.693714 738.454857 622.006857 738.454857 728.283429 738.454857 814.738286 651.780571 814.738286 545.211429 814.738286 438.642286 728.283429 351.968 622.006857 351.968 515.693714 351.968 429.275429 438.605714 429.275429 545.211429L429.275429 545.211429 429.275429 545.211429ZM999.241143-138.930286 244.699429-138.930286 244.699429-91.643429C244.699429 116.923429 413.952 286.614857 622.043429 286.614857 830.025143 286.614857 999.241143 116.923429 999.241143-91.643429L999.241143-138.930286 999.241143-138.930286 999.241143-138.930286ZM277.869714 293.563429 286.537143 295.648C305.152 301.901714 318.427429 318.285714 318.427429 337.522286 318.427429 356.137143 306.029714 372.009143 288.438857 378.701714 240.896 400.352 210.212571 447.894857 210.212571 500.265143 210.212571 559.620571 261.339429 609.613714 314.806857 626.948571 324.169143 655.913143 338.322286 682.72 356.352 706.418286 359.497143 711.648 362.825143 716.804571 366.262857 721.814857 362.678857 721.997714 359.277714 722.875429 355.584 722.875429 233.179429 722.875429 133.522286 623.035429 133.522286 500.265143 133.522286 443.908571 154.953143 391.099429 191.305143 350.907429 75.702857 290.893714 0.329143 170.793143 0.329143 34.966857L0.329143-33.897143C0.329143-58.509714 20.187429-78.441143 44.726857-78.441143L124.269714-78.441143C124.269714-47.940571 127.378286-28.374857 133.229714 0.406857L77.019429 0.406857 77.019429 34.966857C77.019429 157.993143 159.524571 263.611429 277.869714 293.563429L277.869714 293.563429 277.869714 293.563429ZM1052.233143 350.907429C1088.548571 391.099429 1109.979429 443.908571 1109.979429 500.265143 1109.979429 623.035429 1010.395429 722.912 887.954286 722.912 884.260571 722.912 880.822857 722.034286 877.238857 721.851429 880.676571 716.841143 884.004571 711.684571 887.149714 706.454857 905.179429 682.756571 919.332571 655.949714 928.658286 626.985143 982.162286 609.650286 1040.64 559.657143 1040.64 500.301714 1040.64 447.931429 1009.92 400.352 962.413714 378.738286 944.859429 372.045714 932.425143 356.137143 932.425143 337.558857 932.425143 318.322286 945.737143 301.938286 964.315429 295.684571L972.982857 293.6C1091.401143 263.611429 1173.869714 158.029714 1173.869714 34.966857L1173.869714 0.406857 1110.235429 0.406857C1116.086857-28.374857 1119.158857-47.940571 1119.158857-78.441143L1198.738286-78.441143C1223.277714-78.441143 1243.136-58.509714 1243.136-33.897143L1243.136 34.966857C1243.209143 170.793143 1167.798857 290.893714 1052.233143 350.907429L1052.233143 350.907429 1052.233143 350.907429Z"  horiz-adv-x="1244" />

    
    <glyph glyph-name="qita" unicode="&#58912;" d="M509.752 880.154c68.316 0 132.752-13.098 193.388-39.334 60.636-26.154 113.35-61.606 158.1-106.396 44.75-44.708 80.2-97.422 106.394-158.058 26.196-60.636 39.254-125.072 39.254-193.36 0-68.282-13.058-132.636-39.254-192.95s-61.644-112.824-106.394-157.574-97.462-80.238-158.1-106.434c-60.634-26.156-125.072-39.252-193.388-39.252-45.72 0-89.824 5.982-132.188 17.866-42.446 11.926-82.06 28.702-118.846 50.248-36.786 21.546-70.298 47.376-100.454 77.572-30.156 30.12-55.988 63.628-77.534 100.374-21.586 36.83-38.282 76.282-50.248 118.366-11.884 42.078-17.868 86.022-17.868 131.786 0 45.692 5.984 89.794 17.868 132.2 11.964 42.446 28.662 82.06 50.248 118.806 21.546 36.826 47.376 70.256 77.534 100.414 30.156 30.238 63.668 56.068 100.454 77.614 36.786 21.506 76.402 38.242 118.846 50.166C419.93 874.172 464.032 880.154 509.752 880.154L509.752 880.154zM735.44 427.728l-180.938 0 0 180.938-89.458 0 0-180.938-180.978 0 0-89.516 180.978 0 0-180.976 89.458 0 0 180.976 180.938 0L735.44 427.728 735.44 427.728zM735.44 427.728"  horiz-adv-x="1024" />

    
    <glyph glyph-name="shouyi" unicode="&#58894;" d="M586.49098 238.23913c259.137404 77.73496 478.777559 239.106407 610.088662 462.371046l120.84706-62.266478L1246.710719 896 995.757908 804.083793l122.177643-62.951638c-119.751286-204.076546-320.503179-351.430509-557.379505-422.094713-20.227273-3.439046-35.631935-21.031644-35.631935-42.231868 0-23.666319 19.191706-42.8508 42.86525-42.8508C574.49526 233.954772 580.839914 235.496081 586.49098 238.23913zM1283.995949 613.48166c-26.252828 0-47.533731-23.955315-47.533731-53.506304l0-634.469041c0-29.550989 21.282107-53.506304 47.533731-53.506304s47.533731 23.955315 47.533731 53.506304L1331.52968 559.975356C1331.52968 589.526345 1310.247573 613.48166 1283.995949 613.48166zM1051.762818 410.587587c-26.252828 0-47.533731-23.955315-47.533731-53.506304l0-431.574968c0-29.550989 21.282107-53.506304 47.533731-53.506304s47.533731 23.955315 47.533731 53.506304L1099.296548 357.082488C1099.296548 386.632273 1078.014442 410.587587 1051.762818 410.587587zM819.529686 251.643702c-26.252828 0-47.533731-23.955315-47.533731-53.506304l0-272.631083c0-29.550989 21.282107-53.506304 47.533731-53.506304s47.533731 23.955315 47.533731 53.506304l0 272.631083C867.063417 227.688387 845.78131 251.643702 819.529686 251.643702zM587.296554 149.941386c-26.252828 0-47.533731-23.955315-47.533731-53.506304l0-170.928767c0-29.550989 21.282107-53.506304 47.533731-53.506304s47.533731 23.955315 47.533731 53.506304l0 170.928767C634.830285 125.986072 613.549383 149.941386 587.296554 149.941386zM355.063423 58.900595c-26.252828 0-47.533731-23.955315-47.533731-53.506304l0-79.887976c0-29.550989 21.282107-53.506304 47.533731-53.506304s47.533731 23.955315 47.533731 53.506304l0 79.887976C402.597154 34.94528 381.316251 58.900595 355.063423 58.900595zM355.063423 296.607782c-26.252828 0-47.533731-23.955315-47.533731-53.506304l0-9.464601c0-29.550989 21.282107-53.506304 47.533731-53.506304s47.533731 23.955315 47.533731 53.506304l0 9.464601C402.597154 272.652467 381.316251 296.607782 355.063423 296.607782z"  horiz-adv-x="1332" />

    
    <glyph glyph-name="return-copy" unicode="&#58892;" d="M399.211 76.048l39.583-39.585 365.646 365.721-365.646 365.679-39.583-39.583 326.126-326.12z"  horiz-adv-x="1024" />

    
    <glyph glyph-name="gerenzhongxin" unicode="&#58888;" d="M509.770327 807.724138C387.065343 807.724138 287.234555 708.325517 287.234555 586.116414 287.234555 463.942621 387.065343 364.544 509.770327 364.544 632.47531 364.544 732.306099 463.942621 732.306099 586.116414 732.306099 708.325517 632.47531 807.724138 509.770327 807.724138M509.770327 276.26814C338.160669 276.26814 198.574884 415.249655 198.574884 586.116414 198.574884 756.983173 338.160669 896 509.770327 896 681.344522 896 820.96577 756.983173 820.96577 586.116414 820.96577 415.249655 681.344522 276.26814 509.770327 276.26814M51.665811-100.34494C30.883984-100.34494 12.336381-85.726454 8.187109-64.64618-34.298605 152.3712 100.25131 322.037407 142.488777 368.894234 158.802157 387.008441 186.88954 388.526786 205.082504 372.213407 223.310932 355.93534 224.800415 328.004854 208.416108 309.890647 173.129559 270.731474 60.531778 129.207613 95.250905-47.767834 99.896672-71.67294 84.221642-94.871834 60.212603-99.5328 57.34003-100.097766 54.50292-100.34494 51.665811-100.34494M970.435333-100.34494C967.598223-100.34494 964.761114-100.097766 961.888543-99.5328 937.879501-94.871834 922.204472-71.67294 926.850237-47.732526 961.604828 129.313546 849.007048 270.731474 813.685038 309.85534 797.336192 328.004854 798.825677 355.900027 817.018639 372.213407 835.247068 388.491476 863.228063 387.008441 879.61237 368.894234 921.885297 322.072719 1056.470676 152.477133 1013.914035-64.681487 1009.764762-85.726454 991.217162-100.34494 970.435333-100.34494"  horiz-adv-x="1025" />

    
    <glyph glyph-name="erweima" unicode="&#58911;" d="M634.555 134.996c-22.063 0-40.066-17.375-40.066-38.814l0-133.195c0-21.436 18.004-38.889 40.066-38.889 22.137 0 40.184 17.453 40.184 38.889L674.739 96.182C674.742 117.617 656.691 134.996 634.555 134.996M504.943 788.982C501.99 843.92 458.969 889.172 403.957 895.152l0 0.83L113.619 895.982c-60.434 0-110.189-47.543-113.4-107L0.037 514.381c0-3.465 0.607-6.883 1.697-10.018 9.26-54.586 56.32-94.252 111.885-94.252l284.768 0 5.57 0.334 0 0.461c50.438 5.387 90.986 43.131 99.248 92.627 1.293 3.93 1.955 7.377 1.955 10.848L505.16 783.43l0 5.553L504.943 788.983zM437.201 777.119l0-248.145c0-28.188-23.025-51.082-51.359-51.082L119.268 477.892c-28.301 0-51.322 22.895-51.322 51.082L67.946 777.119c0 28.189 23.021 51.121 51.322 51.121l266.574 0C414.176 828.24 437.201 805.309 437.201 777.119M491.619 240.967c-2.953 53.424-44.756 97.443-98.252 103.309l0 0.811-282.66 0c-58.85 0-107.297-46.234-110.467-104.119l-0.242-267.32c0-3.494 0.688-7.045 1.68-9.814 9.02-53.166 54.898-91.83 109.029-91.83l277.127 0 5.533 0.295 0 0.516c49.111 5.279 88.551 42.029 96.521 90.1 1.328 3.504 1.99 7.084 1.99 10.734l0 261.75-0.072 5.57L491.619 240.969 491.619 240.967zM425.467 229.301l0-241.484c0-27.34-22.32-49.584-49.811-49.584L116.201-61.767c-27.449 0-49.771 22.244-49.771 49.584L66.43 229.301c0 27.305 22.322 49.586 49.771 49.586l259.455 0C403.146 278.887 425.467 256.605 425.467 229.301M783.727 301.58c-22.098 0-40.105-17.41-40.105-38.85l0-133.273c0-21.391 18.008-38.846 40.105-38.846 22.07 0 40.109 17.455 40.109 38.846L823.836 262.73C823.836 284.17 805.789 301.58 783.727 301.58M1023.961 791.602l-0.152 0c-2.98 53.572-44.895 97.701-98.547 103.6l0 0.801L671.27 896.003c-58.887 0-107.48-46.363-110.721-104.4l-0.195-268.031c0-3.543 0.67-7.18 1.699-9.777 9.006-53.314 54.98-92.037 109.217-92.037l248.457 0 5.531 0.314 0 0.443c49.223 5.367 88.734 42.209 96.855 90.375 1.258 3.635 1.883 7.215 1.883 10.684L1023.996 786.047 1023.961 791.602zM957.438 779.922 957.438 537.83c0-27.436-22.406-49.736-49.961-49.736L676.879 488.094c-27.598 0-49.99 22.301-49.99 49.736L626.889 779.922c0 27.398 22.393 49.68 49.99 49.68l230.598 0C935.031 829.602 957.438 807.32 957.438 779.922M930.98 301.621c-22.098 0-40.109-17.451-40.109-38.891l0-66.6c0-21.43 18.012-38.85 40.109-38.85 22.102 0 40.141 17.42 40.141 38.85l0 66.6C971.121 284.17 953.082 301.621 930.98 301.621M930.98 101.756c-22.098 0-40.109-17.41-40.109-38.854l0-99.916c0-21.475 18.012-38.889 40.109-38.889 22.102 0 40.141 17.414 40.141 38.889l0 99.916C971.121 84.346 953.082 101.756 930.98 101.756M783.727 68.402c-22.098 0-40.105-17.416-40.105-38.82l0-66.635c0-21.396 18.008-38.85 40.105-38.85 22.07 0 40.109 17.453 40.109 38.85l0 66.635C823.836 50.986 805.789 68.402 783.727 68.402M634.555 301.621c-22.063 0-40.066-17.451-40.066-38.891l0-33.32c0-21.398 18.004-38.85 40.066-38.85 22.137 0 40.184 17.451 40.184 38.85l0 33.32C674.742 284.17 656.691 301.621 634.555 301.621"  horiz-adv-x="1024" />

    
    <glyph glyph-name="icon" unicode="&#58941;" d="M973.072097-110.560816c-28.113291 0-50.891064 22.778796-50.891064 50.891064 0 73.388451-148.615782 271.836175-230.470045 307.73478-15.936971 6.991228-27.201525 21.635763-29.852912 38.847773-2.650363 17.21201 3.677762 34.573423 16.764825 46.037523 55.132668 48.27447 86.74055 117.686353 86.74055 190.461843 0 139.702786-113.660666 253.364475-253.364475 253.364475S258.635525 663.116999 258.635525 523.41319c0-72.791863 31.608905-142.204769 86.707804-190.461843 13.087063-11.464099 19.415189-28.825512 16.764825-46.037523-2.650363-17.195637-13.899568-31.856545-29.835516-38.847773-81.854263-35.916001-230.453672-234.362702-230.453672-307.73478 0-28.113291-22.778796-50.891064-50.891064-50.891064s-50.891064 22.778796-50.891064 50.891064c0 100.905154 126.632095 279.853779 232.822626 363.943966-48.853661 62.1065-76.006068 139.15634-76.006068 219.137952 0 195.830107 159.317519 355.147626 355.147626 355.147626s355.147626-159.317519 355.147626-355.147626c0-79.96524-27.16878-157.01508-76.022441-219.137952 106.20588-84.057441 232.838999-263.006066 232.838999-363.943966C1023.963161-87.78202 1001.185388-110.560816 973.072097-110.560816z"  horiz-adv-x="1024" />

    
    <glyph glyph-name="fanhui" unicode="&#58887;" d="M624.789 691.952l-39.583 39.584-365.646-365.721 365.646-365.679 39.583 39.583-326.126 326.12z"  horiz-adv-x="1024" />

    
    <glyph glyph-name="wode" unicode="&#58890;" d="M512-33.792c-206.848 0-368.64 38.912-368.64 90.112 0 135.168 75.776 266.24 194.56 331.776 2.048 2.048 4.096 2.048 6.144 4.096l10.24 6.144 10.24-8.192c32.768-24.576 86.016-51.2 147.456-51.2 61.44 0 112.64 28.672 147.456 51.2l10.24 8.192 10.24-6.144c6.144-2.048 10.24-6.144 18.432-10.24C811.008 310.272 880.64 187.392 880.64 56.32 880.64 5.12 718.848-33.792 512-33.792zM184.32 60.416c16.384-12.288 106.496-53.248 327.68-53.248s311.296 40.96 327.68 53.248c-2.048 114.688-63.488 223.232-159.744 282.624-2.048 2.048-4.096 2.048-6.144 4.096-51.2-34.816-106.496-51.2-159.744-51.2-53.248 0-108.544 18.432-159.744 53.248C251.904 289.792 186.368 179.2 184.32 60.416zM512 365.568c-135.168 0-243.712 108.544-243.712 243.712C268.288 744.448 376.832 855.04 512 855.04s243.712-110.592 243.712-243.712C755.712 476.16 645.12 365.568 512 365.568zM512 814.08c-112.64 0-202.752-92.16-202.752-202.752 0-112.64 90.112-202.752 202.752-202.752 112.64 0 202.752 92.16 202.752 202.752C714.752 721.92 622.592 814.08 512 814.08zM518.144 746.496c-75.776 0-137.216-61.44-137.216-139.264 0-10.24-8.192-16.384-16.384-16.384-10.24 0-16.384 8.192-16.384 16.384 0 96.256 77.824 174.08 172.032 174.08 10.24 0 16.384-8.192 16.384-16.384C534.528 754.688 526.336 746.496 518.144 746.496M368.64 541.696m-20.48 0a1 1 0 1 0 40.96 0 1 1 0 1 0-40.96 0Z"  horiz-adv-x="1024" />

    
    <glyph glyph-name="tuichu" unicode="&#59143;" d="M846.99975 831.02722 124.782981 831.02722c-33.020044 0-59.786665-26.694989-59.786665-59.626006l0-775.126816c0-32.933063 26.76662-59.628052 59.786665-59.628052l722.216769 0c33.020044 0 62.690808 16.757662 62.690808 49.685609L909.690558 160.24489l0 0 0 0c-0.13917 13.015432-13.669324 25.245987-26.754341 25.245987-13.08297 0-22.794146-12.230556-22.933315-25.245987l0 0 0 0 0-149.066037c0-32.931017 8.173147-24.846898-24.843828-24.846898l-670.787446 0c-33.017998 0-49.687656-8.084119-49.687656 24.846898L114.683972 756.497783c0 32.931017 16.670681 24.846898 49.687656 24.846898l670.787446 0c33.017998 0 24.843828 8.084119 24.843828-24.846898l0-149.063991 0 0 0 0c1.851161-11.301394 11.083429-21.656229 22.936385-21.656229 11.850909 0 24.901133 10.359952 26.752294 21.656229l0 0 0 0L909.691581 781.343657C909.691581 814.269557 880.019795 831.02722 846.99975 831.02722L846.99975 831.02722 846.99975 831.02722zM959.37412 383.838318c0 0.283456 0.005117 0.563842-0.007163 0.847298-0.097214 3.381004-0.948605 6.683213-2.561335 9.653871-1.187035 2.37714-2.764973 4.628414-4.76963 6.627954-1.155313 1.150196-2.39249 2.171456-3.686972 3.050476L717.125821 634.617921c-8.633634 8.613168-23.184025 8.064676-32.496112-1.224898-9.311063-9.286504-9.865695-23.798009-1.226944-32.409131L876.598882 408.311709 394.811997 408.311709c-13.169951 0-23.848151-10.652618-23.848151-23.785729 0-13.132088 3.833305-25.529443 17.003256-25.529443l496.879628 0L683.402765 166.693766c-8.637728-8.613168-8.084119-23.127743 1.226944-32.416294 9.311063-9.284457 23.862477-9.836019 32.496112-1.219781l231.225245 230.596935c1.294482 0.87902 2.53166 1.90335 3.683902 3.053546 2.01182 2.00261 3.584642 4.250814 4.7727 6.631024 1.612731 2.968611 2.462075 6.272867 2.561335 9.649777C959.379237 383.273453 959.37412 383.551792 959.37412 383.838318L959.37412 383.838318 959.37412 383.838318z"  horiz-adv-x="1024" />

    
    <glyph glyph-name="jiangjin" unicode="&#58896;" d="M828.194664 537.134406c-14.121315 0-25.582093 11.460777-25.582093 25.582093s11.460777 25.582093 25.582093 25.582093c4.604777 0 9.107225 1.534926 12.791046 4.40012l43.591886 33.768362c5.01409 3.888478 8.083941 10.130509 8.083941 16.474868L892.661537 760.824223c0 11.460777-9.41421 20.874988-20.874988 20.874988L152.213451 781.699211c-11.460777 0-20.874988-9.41421-20.874988-20.874988l0-117.882282c0-6.446687 3.069851-12.58639 8.083941-16.474868l43.591886-33.768362c3.683821-2.865194 8.18627-4.40012 12.791046-4.40012 14.121315 0 25.582093-11.460777 25.582093-25.582093s-11.460777-25.582093-25.582093-25.582093c-15.860897 0-31.517138 5.321075-44.103528 15.144599l-43.591886 33.768362c-17.498151 13.507345-27.935645 34.791646-27.935645 56.894574L80.174278 760.824223c0 39.703408 32.335765 72.039173 72.039173 72.039173l719.47077 0c39.703408 0 72.039173-32.335765 72.039173-72.039173l0-117.882282c0-22.102928-10.437494-43.387229-27.935645-56.894574l-43.591886-33.768362C859.81413 542.455481 844.055561 537.134406 828.194664 537.134406zM655.976017 621.043669 655.976017 621.043669c-14.121315 0-25.582093 11.460777-25.582093 25.582093l0 133.026881c0 14.121315 11.460777 25.582093 25.582093 25.582093l0 0c14.121315 0 25.582093-11.460777 25.582093-25.582093l0-133.026881C681.558109 632.504447 670.097332 621.043669 655.976017 621.043669zM368.433297 621.043669 368.433297 621.043669c-14.121315 0-25.582093 11.460777-25.582093 25.582093l0 133.026881c0 14.121315 11.460777 25.582093 25.582093 25.582093l0 0c14.121315 0 25.582093-11.460777 25.582093-25.582093l0-133.026881C394.015389 632.504447 382.554612 621.043669 368.433297 621.043669zM512 551.460378c37.963825 0 74.904367-7.469971 109.491356-22.102928 33.461377-14.121315 63.648246-34.484661 89.434996-60.373738s46.150095-55.973618 60.373738-89.434996c14.632957-34.689317 22.102928-71.527531 22.102928-109.491356s-7.469971-74.904367-22.102928-109.491356c-14.121315-33.461377-34.484661-63.648246-60.373738-89.434996s-55.973618-46.150095-89.434996-60.373738c-34.689317-14.632957-71.527531-22.102928-109.491356-22.102928s-74.904367 7.469971-109.491356 22.102928c-33.461377 14.121315-63.648246 34.484661-89.434996 60.373738s-46.150095 55.973618-60.373738 89.434996c-14.632957 34.689317-22.102928 71.527531-22.102928 109.491356s7.469971 74.904367 22.102928 109.491356c14.121315 33.461377 34.484661 63.648246 60.373738 89.434996s55.973618 46.150095 89.434996 60.373738C437.095633 543.990407 474.036175 551.460378 512 551.460378M512 602.624563c-183.679424 0-332.567203-148.887779-332.567203-332.567203s148.887779-332.567203 332.567203-332.567203 332.567203 148.887779 332.567203 332.567203S695.679424 602.624563 512 602.624563L512 602.624563zM388.898971 292.569601 388.898971 292.569601c-14.121315 0-25.582093 11.460777-25.582093 25.582093l0 51.164185c0 14.121315 11.460777 25.582093 25.582093 25.582093l0 0c14.121315 0 25.582093-11.460777 25.582093-25.582093l0-51.164185C414.481063 304.030379 403.020286 292.569601 388.898971 292.569601zM635.510343 292.569601 635.510343 292.569601c-14.121315 0-25.582093 11.460777-25.582093 25.582093l0 51.164185c0 14.121315 11.460777 25.582093 25.582093 25.582093l0 0c14.121315 0 25.582093-11.460777 25.582093-25.582093l0-51.164185C661.092435 304.030379 649.631658 292.569601 635.510343 292.569601zM512 129.867493c-51.47117 0-97.723593 30.596183-117.779954 77.974218-5.525732 12.995703 0.511642 28.037973 13.609673 33.563705 12.995703 5.525732 28.037973-0.511642 33.563705-13.609673 12.074748-28.447287 39.805736-46.866394 70.708904-46.866394 30.903168 0 58.634156 18.419107 70.708904 46.866394 5.525732 12.995703 20.568002 19.033077 33.563705 13.609673 12.995703-5.525732 19.033077-20.568002 13.609673-33.563705C609.723593 160.463675 563.47117 129.867493 512 129.867493z"  horiz-adv-x="1024" />

    
    <glyph glyph-name="tixian" unicode="&#58953;" d="M519.875831 144.238069 519.875831 231.113955 591.594298 302.885386 519.875831 374.656818 519.875831 461.531499 635.199559 346.52074 635.248912 346.56889 678.954085 302.885386 635.248912 259.197067 635.199559 259.247624ZM306.899187 338.808418l310.877528 0 0-71.848471-310.877528 0 0 71.848471ZM1262.322065 425.314756 1025.719735 425.314756c-37.678075 0-68.224028-30.553174-68.224028-68.243287l0-116.397459c0-37.690113 30.544748-68.243287 68.224028-68.243287l236.602329 0c37.678075 0 68.222824 30.553174 68.222824 68.243287l0 116.397459C1330.544888 394.761582 1300.00014 425.314756 1262.322065 425.314756zM1292.939037 267.233195c0-30.09094-24.386445-54.484609-54.46896-54.484609L1049.570519 212.748586c-30.082514 0-54.46896 24.393668-54.46896 54.484609l0 68.732003c0 30.09094 24.38765 54.484609 54.46896 54.484609l188.899558 0c30.082514 0 54.46896-24.393668 54.46896-54.484609L1292.939037 267.233195zM1037.206968 302.884183a29.991 30 0 1 0 72.202368 0 29.991 30 0 1 0-72.202368 0ZM957.486077 896 411.193102 720.367998 411.193102 675.980309 452.778497 675.980309 921.973519 826.826226 970.443069 675.980309 1028.181371 675.980309ZM507.860159 4.369002c-31.44153 0-56.9318 25.497492-56.9318 56.948652L450.928358 108.566618l-26.891416 0 0-62.851764c0-37.690113 30.545952-68.244491 68.22162-68.244491l130.736338 0 0 26.898639L507.860159 4.369002zM1205.597307 36.52555c0-65.120802-41.841791-112.469676-106.940926-112.469676l-621.875428-1.243458c-65.099134 0-112.39986 48.493625-112.39986 113.613222l-0.17093 131.672843-0.349083 0.350287-0.018056 44.406948-56.946245 0 0-119.233456 0-84.784999c0-75.379022 61.091905-136.485371 136.450463-136.485371l682.233055 0c75.358558 0 136.444444 61.106349 136.444444 136.485371L1262.024742 172.429517l-55.955571 0.001204L1205.597307 36.52555zM1125.580298 725.392383 443.347242 725.392383c-75.358558 0-136.450463-61.107553-136.450463-136.486575l0-204.016048 56.875224 0-0.073428 182.782182c0 65.120802 44.627231 108.591245 109.732384 108.591245l627.821874 0c65.099134 0 103.779921-46.442462 103.779921-111.563264l1.034008-139.383963 55.955571 0L1262.022335 588.904604C1262.023538 664.283627 1200.937653 725.392383 1125.580298 725.392383z"  horiz-adv-x="1332" />

    
    <glyph glyph-name="shijian" unicode="&#58882;" d="M353.673 598.733l-32.12-32.073 32.12-32.073 32.12 32.073-32.12 32.073zM689.885 530.184l32.768 32.768-32.768 32.768-32.768-32.768 32.768-32.768zM790.092 384c0 12.799-10.376 23.174-23.174 23.174h-232.299v185.394c0 12.798-10.376 23.174-23.174 23.174s-23.174-10.376-23.174-23.174v-208.568c0-12.799 10.376-23.174 23.174-23.174h255.474c12.799 0 23.174 10.376 23.174 23.174zM233.908 407.173v-46.348h46.348v46.348h-46.348zM535.174 152.257h-46.348v-46.348h46.348v46.348zM882.789 384c0 204.782-166.008 370.789-370.789 370.789-204.782 0-370.789-166.008-370.789-370.789 0-204.782 166.008-370.789 370.789-370.789 204.782 0 370.789 166.008 370.789 370.789zM187.559 384c0 179.184 145.256 324.441 324.441 324.441s324.441-145.256 324.441-324.441c0-179.184-145.256-324.441-324.441-324.441-179.184 0-324.441 145.256-324.441 324.441zM691.045 243.193l-32.12-32.073 32.121-32.027 32.166 32.027-32.166 32.073zM354.924 249.96l-32.768-32.768 32.768-32.768 32.768 32.768-32.768 32.768z"  horiz-adv-x="1024" />

    
    <glyph glyph-name="clock" unicode="&#58900;" d="M509.778-83.005c-63.28 0-124.679 12.398-182.49 36.852-55.83 23.614-105.964 57.415-149.015 100.465-43.049 43.049-76.851 93.185-100.465 149.015-24.453 57.811-36.852 119.209-36.852 182.489 0 63.281 12.398 124.681 36.851 182.492 23.615 55.83 57.416 105.965 100.465 149.015 43.049 43.049 93.185 76.85 149.015 100.464 57.812 24.453 119.211 36.851 182.49 36.851s124.679-12.398 182.49-36.851c55.83-23.614 105.965-57.415 149.015-100.464s76.851-93.185 100.465-149.015c24.453-57.812 36.852-119.211 36.852-182.492 0-63.28-12.398-124.679-36.852-182.49-23.614-55.83-57.415-105.965-100.465-149.015s-93.185-76.851-149.015-100.465c-57.811-24.453-119.209-36.851-182.489-36.851zM509.778 813.707c-235.939 0-427.89-191.951-427.89-427.89s191.951-427.89 427.89-427.89 427.89 191.951 427.89 427.89-191.952 427.89-427.89 427.89zM450.584 817.708h118.462v-183.677h-118.462v183.677zM450.971 110.821h118.462v-183.677h-118.462v183.677zM53.52 442.499h186.394v-113.815h-186.394v113.815zM762.066 444.546h186.394v-119.32h-186.394v119.32zM642.462 215.642l-158.163 158.164v187.82h40.931v-170.866l146.175-146.173z"  horiz-adv-x="1024" />

    
    <glyph glyph-name="dengji" unicode="&#58981;" d="M513.518 583.965c-155.081 0-280.798-125.716-280.798-280.799 0-155.076 125.717-280.797 280.798-280.797s280.799 125.72 280.799 280.797c0 155.084-125.72 280.8-280.8 280.8M657.904 328.21l-55.368-53.968 13.072-76.202c4.39-25.58-10.222-36.77-33.653-24.453l-68.434 35.98-68.436-35.98c-22.973-12.076-38.126-1.638-33.65 24.453l13.067 76.202-55.365 53.968c-18.585 18.118-13.338 35.756 12.855 39.558l76.51 11.123 34.22 69.33c11.485 23.278 29.882 23.735 41.596 0l34.22-69.33 76.511-11.123c25.684-3.729 31.807-21.084 12.855-39.558m0 0zM776.011 745.837h-173.62c-9.365 0-16.879-6.562-19.085-15.245l-53.52-105.528s114.598-6.897 182.289-72.08l79.936 161.31c2.371 3.292 4.056 7.118 4.056 11.485-0.001 11.08-8.98 20.059-20.06 20.059l0.004-0.001m0 0zM494.417 625.063l-53.522 105.529c-2.206 8.681-9.717 15.244-19.082 15.244h-173.62c-11.079 0-20.058-8.98-20.058-20.058 0-4.367 1.688-8.195 4.055-11.49l79.94-161.304c67.689 65.182 182.287 72.08 182.287 72.08m0 0z"  horiz-adv-x="1024" />

    
    <glyph glyph-name="yule" unicode="&#58909;" d="M959.543 551.495c0 147.386-120.098 266.859-268.238 266.859-71.071 0-135.488-27.683-183.499-72.56l378.8-376.819c45.106 47.749 72.937 111.832 72.937 182.52zM470.392 702.731c-29.793-43.002-47.338-95.053-47.338-151.236 0-25.049 3.721-49.207 10.208-72.207l185.441-184.471c23.132-6.454 47.401-10.156 72.598-10.156 56.468 0 108.792 17.431 152.018 47.081L470.392 702.731z m-333.743-548.31a111.032 111.032 0 0 1-11.707-12.341c-10.519-12.948-18.161-28.322-21.953-45.162a110.725 110.725 0 0 1-2.69-24.297c0-16.119 3.459-31.438 9.683-45.234 0.478-1.069 0.973-2.113 1.484-3.163l0.41-4.089 1.006-1.011-48.425-48.164 32.288-32.12 46.646 46.383c0.543-0.42 1.083-0.844 1.632-1.254 18.314-13.549 40.965-21.563 65.49-21.563 12.17 0 23.88 1.975 34.829 5.624 11.645 3.874 22.408 9.655 31.963 16.945a0.061 0.061 0 0 0-0.01-0.033l0.239 0.205a110.972 110.972 0 0 1 10.304 8.959l294.805 256.298L400.035 432.07 136.649 154.421z m754.146 132.234c0 3.859 0.225 7.628 0.543 11.359h-12.503c0.33-3.731 0.548-7.5 0.548-11.359 0-50.177-28.108-78.151-62.78-78.151-1.932 0-3.831 0.177-5.715 0.42v-12.184c1.884 0.243 3.783 0.405 5.715 0.405 34.673 0 62.78-27.974 62.78-78.141h11.411c0 50.167 28.113 78.141 62.785 78.141 1.927 0 3.821-0.162 5.706-0.405v12.184c-1.884-0.243-3.779-0.42-5.706-0.42-34.667 0-62.784 27.974-62.784 78.151zM304.749 749.554c0.348-0.324 0.686-0.658 1.034-1.006 11.426-11.425 10.31-36.466 10.31-36.466h7.948c0 34.967 19.549 50.625 43.66 50.625 1.369 0 1.369 7.919 0 7.919-24.111 0-43.66 15.653-43.66 50.62 0 2.715 0.314 5.3 0.543 7.915h-9.04c0.233-2.615 0.543-5.2 0.543-7.915 0-34.967-19.54-50.62-43.67-50.62-1.359 0 0-7.919 0-7.919s16.221 2.195 32.332-13.153z m-53.168-259.76h11.402c0 39.706 13.595 77.66 71.762 79.043l-0.061 10.743c-49.8 2.07-71.693 29.548-71.698 77.878 0 3.854 0.22 7.618 0.554 11.349h-12.509c0.325-3.726 0.55-7.495 0.55-11.349 0-50.181-28.557-77.883-68.486-77.736v-12.189c61.74 0.001 68.486-27.567 68.486-77.739z"  horiz-adv-x="1024" />

    
    <glyph glyph-name="saoyisao" unicode="&#58938;" d="M305.748017-128h-221.379474a83.21719 83.21719 0 0 0-83.089263 83.153226v857.117872c0 45.862203 37.291024 83.153226 83.089263 83.153226h222.466862a31.98201 31.98201 0 0 0 0-63.96402h-222.466862a19.189206 19.189206 0 0 1-19.125242-19.189206v-857.117872a19.189206 19.189206 0 0 1 19.125242-19.189206h221.379474a31.98201 31.98201 0 0 0 0-63.96402zM940.526954-128h-222.402899a31.98201 31.98201 0 0 0 0 63.96402h222.402899a19.189206 19.189206 0 0 1 19.125242 19.189206v857.117872a19.189206 19.189206 0 0 1-19.125242 19.189206H718.060091a31.98201 31.98201 0 0 0 0 63.96402h222.466863c45.798238 0 83.089262-37.291024 83.089262-83.153226v-857.117872c0-45.862203-37.291024-83.153226-83.089262-83.153226zM831.404335 351.730152c-0.063964 0-0.063964 0 0 0l-638.360922 1.023424a31.98201 31.98201 0 0 0-31.918046 32.045974c0.063964 17.65407 12.792804 29.743269 32.045974 31.918046l638.296958-1.023424a31.98201 31.98201 0 0 0-0.063964-63.96402z"  horiz-adv-x="1024" />

    
    <glyph glyph-name="zhuanzhanghuikuan" unicode="&#58906;" d="M838.127174 871.696478c6.089695-1.644453 11.406794-4.455475 15.359826-9.595542 11.808954-15.35471 3.568269-38.320771-15.053858-41.826618-2.337231-0.441045-4.700045-0.296759-7.053649-0.296759-216.232786-0.007163-432.463526-0.058328-648.695289 0.045026-35.104519 0.017396-65.373916-11.718903-90.508363-36.0828-22.286586-21.60404-35.382858-48.12916-40.133046-78.777181-1.153266-7.444553-1.645476-14.942317-1.644453-22.482037 0.014326-199.459774 0-398.918525 0.021489-598.377277 0.00307-34.671661 10.630105-65.664535 33.174564-92.140536 21.920242-25.743314 49.774637-40.829917 83.531462-44.584428 4.587482-0.509606 9.213849-0.656963 13.845333-0.656963 271.717472 0.022513 543.434943 0.019443 815.153438 0.0307 3.822049 0 7.617491-0.025583 11.239995-1.481748 7.760754-3.118014 12.681834-8.80862 15.164374-16.71059 0.378623-1.204431 0.735757-2.415003 1.102101-3.623527v-8.160867c-0.595564-2.783393-0.317225-5.810333-1.673106-8.357342-3.753487-7.048533-8.772804-12.561084-17.45658-13.125949-0.521886-0.033769-1.086751 0.1361-1.543146-0.276292H169.550069c-4.109598 0.522909-8.253988 0.457418-12.380982 0.674359-13.834076 0.728594-26.88737 4.674463-39.684837 9.561773-19.421328 7.414877-36.893258 18.179035-52.465932 31.895431-23.348778 20.566408-40.539298 45.497217-51.753711 74.519204-4.91494 12.719696-8.715499 25.775037-10.476609 39.31747-0.827855 6.370081-1.081635 12.82919-1.075495 19.277042 0.001023 0.699941 0.23843 1.451048-0.258897 2.098801V694.352397c0.447185 5.490038 0.505513 10.998495 0.840135 16.494673 0.571005 9.361205 2.833535 18.400069 5.372357 27.368324 7.384178 26.076912 19.683295 49.603745 37.036522 70.429049 15.123442 18.149359 33.003672 32.95046 53.89549 44.103474 15.389502 8.216125 31.599695 14.015202 48.726772 17.251919 6.194072 1.170662 12.504802 1.026376 18.765389 1.433652 1.153266 0.074701 2.343371-0.314155 3.457751 0.261966l668.579152 0.001024zM1002.95929-104.783229c5.889127 1.63115 11.07729 4.347005 14.988365 9.241478 2.967588 3.713578 4.354168 8.089235 5.683443 12.517082 0-6.79987-0.036839-13.599739 0.034793-20.399609 0.01228-1.170662-0.225127-1.409093-1.39579-1.394767-6.436596 0.073678-12.874215 0.035816-19.310811 0.035816zM480.90019 357.58949l-3.592828-0.001023c-83.322707-0.001023-166.646438 0.044002-249.968122-0.056282-11.458983-0.014326-19.667945 4.848425-24.075325 15.20633-4.517897 10.616802-2.863211 20.769023 5.105275 29.259394 20.970614 22.343891 42.157145 44.48312 63.222927 66.736961 48.176233 50.895157 96.331999 101.809757 144.492881 152.718217 4.672416 4.939499 9.290597 9.93221 13.993713 14.84101 8.005324 8.356318 18.60166 10.514471 28.25553 5.826705 9.463536-4.595668 15.420201-15.800871 14.048971-26.4013-0.792039-6.127558-3.2623-11.410887-7.541767-15.926737-38.906102-41.070394-77.783551-82.165348-116.658953-123.264395a84717.980089 84717.980089 0 0 1-61.075007-64.650439c-0.596588-0.633427-1.434675-1.121544-1.588171-2.169409 0.877997-0.700965 1.908466-0.369414 2.846838-0.369414 83.413781-0.017396 166.82654-0.056282 250.240321 0.035816 11.369955 0.01228 19.232017-5.030573 23.88806-15.134699 4.457522-9.674337 2.38328-21.415752-4.885264-29.100782-19.063171-20.154016-38.164205-40.271192-57.231469-60.423161-50.78464-53.66934-101.558024-107.349937-152.337547-161.024393-4.298909-4.54348-8.570189-9.115612-12.930497-13.600763-6.885827-7.083326-15.220656-9.478885-24.606421-6.459109-9.69378 3.119037-15.148002 10.317996-16.85897 20.192902-1.575892 9.098215 1.220804 16.95516 7.567349 23.654746 42.768059 45.153386 85.512582 90.329285 128.262223 135.502113 15.827477 16.724917 31.650861 33.453926 47.469128 50.190099 1.159406 1.228991 2.25639 2.51631 3.957125 4.417613zM812.830021 644.372076c25.015743 0 50.03251 0.021489 75.049277-0.00921 13.924127-0.017396 24.035416-10.033517 25.11705-24.775266 0.947582-12.915148-8.782014-24.931832-21.688974-26.755364-1.071402-0.151449-2.168386-0.177032-3.254114-0.177032-50.212612-0.008186-100.42727-0.029676-150.640906 0.007163-12.982686 0.00921-23.483854 9.854439-24.856107 23.089881-1.388627 13.393032 7.16826 25.565259 19.814278 28.226878 1.976004 0.415462 3.964288 0.387833 5.954619 0.387833 24.835641 0.007163 49.671283 0.005117 74.504877 0.005117zM886.759801 138.240737c-25.01472 0.001023-50.031487-0.022513-75.04723 0.011256-12.573363 0.017396-22.673395 8.632611-24.693402 20.935822-2.153036 13.110599 4.696975 25.364691 16.447601 29.432333a24.357757 24.357757 0 0 0 8.004301 1.350764c50.212612 0.01228 100.42727 0.050142 150.639882-0.017396 13.33982-0.01842 23.475667-9.781784 24.936949-23.624047 1.335415-12.648065-7.173376-24.806989-19.293416-27.604708-2.146896-0.49528-4.318352-0.480954-6.490831-0.480954-24.832572-0.00614-49.668213-0.00307-74.503854-0.00307zM857.334631 409.320689c25.01165-0.001023 50.024324 0.029676 75.035974-0.01535 12.484336-0.022513 22.310122-8.478092 24.660656-21.054525 2.285043-12.218276-4.349051-24.63405-15.515369-29.030174-2.639107-1.039679-5.369288-1.61887-8.215102-1.61887-50.748824 0.002047-101.497649-0.036839-152.244426 0.030699-11.779278 0.016373-21.425985 8.804527-23.713075 21.164019-2.618641 14.150278 6.537903 27.78174 20.3597 30.198789 1.857301 0.324388 3.78828 0.312108 5.68549 0.313132 24.647353 0.020466 49.296753 0.014326 73.946152 0.01228z"  horiz-adv-x="1024" />

    
    <glyph glyph-name="shangjia" unicode="&#58936;" d="M536.576 263.68c-65.536 0-118.784 28.672-144.896 77.824H368.64c-28.16-47.616-81.408-77.824-138.752-77.824-88.064 0-159.744 68.608-159.744 153.6 0 2.56 0 7.168 57.344 272.896 1.024 55.296 48.128 99.328 105.472 99.328h576.512c57.344 0 104.448-44.544 105.472-99.328 59.392-265.728 59.392-269.824 59.392-272.896 0-87.552-65.024-153.088-151.04-153.088-54.272 0-97.792 26.624-125.952 77.824h-22.016c-28.16-48.128-81.408-78.336-138.752-78.336z m-193.024 118.784h74.752l5.12-12.8c16.896-40.96 59.392-65.536 113.152-65.536 46.592 0 89.088 26.112 108.032 66.56l5.632 11.776h72.704l5.632-11.776c20.992-44.544 52.224-66.048 95.232-66.048 63.488 0 109.056 46.592 110.08 110.592-3.072 16.896-36.352 167.936-58.88 267.264l-0.512 2.048v2.048c0 33.792-29.184 60.928-64.512 60.928H232.96c-35.84 0-64.512-27.136-64.512-60.928v-2.048l-0.512-2.048c-21.504-99.84-53.76-250.88-56.832-267.776 1.024-61.44 53.76-111.104 118.784-111.104 46.592 0 89.088 26.112 108.032 66.56l5.632 12.288z m589.824 34.304z m-822.272 0zM831.488-34.304H212.992c-52.736 0-93.696 40.96-93.696 92.672v165.888c0 11.264 9.216 20.48 20.48 20.48s20.48-9.216 20.48-20.48v-165.888c0-29.696 22.528-51.712 52.736-51.712h618.496c29.184 0 52.736 20.992 52.736 46.592v168.448c0 11.264 9.216 20.48 20.48 20.48s20.48-9.216 20.48-20.48v-168.448c0-48.128-41.984-87.552-93.696-87.552zM779.776 504.32H288.768c-11.264 0-20.48 9.216-20.48 20.48s9.216 20.48 20.48 20.48h491.008c11.264 0 20.48-9.216 20.48-20.48s-9.216-20.48-20.48-20.48z"  horiz-adv-x="1024" />

    
    <glyph glyph-name="fulifandian" unicode="&#58889;" d="M234.6 734.4l-56.3-52.1c56.3-44.4 99.3-85.8 129-124.2l58.6 56.7c-35.9 39.9-79.7 79.7-131.3 119.6z m444.9-689.8h179.8l18.8 75.9c-21.9-1.5-52.4-3.1-91.5-4.6-39.9 0-79-0.8-118-0.8-59.4 0-111.8 0.8-156.3 1.5-45.3 1.5-79.7 8.4-102.4 19.9-17.2 10-35.2 25.3-53.2 46.7l-7.8 7.7V483h-179v-73.6H273v-210c-31.3-16.9-65.7-55.9-104.8-117.3l60.2-54.4c39.1 69 65.7 102.7 80.5 102.7 9.4 0 18.8-6.1 28.9-19.2 22.7-25.3 49.2-42.9 80.5-52.1 32.8-7.7 73.5-12.3 123.5-13 49.3-0.7 95.4-1.5 137.7-1.5zM803 737.4c-100.1-23-222.8-36.8-367.4-39.9v-180.1c-2.3-136.4-26.6-242.9-71.9-318l74.3-36c44.6 75.1 68.8 186.2 72.7 332.6h243.1c-16.4-42.9-37.5-82.8-64.1-120.3-38.3 30.7-79 60.5-122 88.9L520 407.9c42.2-29.1 82.9-59 121.2-91.2-43-44.4-96.2-83.5-159.5-117.3l50-64.4c65.7 36 121.2 78.9 168.1 129.5 40.7-37.6 78.2-76.6 111.8-118l54.7 63.6c-36 39.9-75 78.9-117.3 115.7 37.5 53.6 65.7 114.2 85.2 181.6v55.9H511.4l-0.8 64.4c122.7 3.8 233.7 17.6 332.2 41.4L803 737.4z"  horiz-adv-x="1024" />

    
    <glyph glyph-name="jichutubiao_jiangli-copy" unicode="&#58884;" d="M787.2 345.6c25.6 51.2 44.8 102.4 44.8 166.4 0 179.2-140.8 320-320 320s-320-140.8-320-320c0-64 19.2-115.2 44.8-166.4l-153.6-179.2 179.2 12.8 19.2-179.2 166.4 198.4c25.6-6.4 44.8-6.4 64-6.4s38.4 0 64 6.4l166.4-198.4 12.8 179.2 179.2-12.8-147.2 179.2zM652.8 339.2l-128 57.6-121.6-76.8 12.8 140.8-102.4 89.6 134.4 32 51.2 128 70.4-121.6 140.8-12.8-89.6-102.4 32-134.4z"  horiz-adv-x="1024" />

    
    <glyph glyph-name="gerenziliao-" unicode="&#58965;" d="M980.611-38.889h-157.020v35.828h157.020l1.1 773.023-443.229 1.101v35.828h442.128c20.365 0 36.928-16.563 36.928-36.928v-771.923c0-20.365-16.562-36.929-36.928-36.929zM723.645-8.517h-35.877c0 146.858-99.573 275.155-242.155 312.031l-53.814 13.91 51.813 20.166c83.439 32.425 139.479 114.034 139.479 203.001 0 120.289-97.797 218.162-218.037 218.162-120.239 0-218.037-97.873-218.037-218.162 0-88.965 56.042-170.576 139.479-203.001l51.813-20.166-53.814-13.91c-142.583-36.875-242.157-165.172-242.157-312.031h-35.877c0 148.109 91.144 279.257 226.418 332.848-74.255 45.685-121.74 127.795-121.74 216.261 0 140.054 113.91 253.988 253.914 253.988s253.912-113.935 253.912-253.989c0-88.466-47.484-170.576-121.738-216.261 135.274-53.591 226.418-184.738 226.418-332.848zM918.664 260.983h-191.643v35.828h191.643v-35.828zM918.664 423.104h-279.508v35.826h279.508v-35.826zM918.664 575.117h-279.508v35.826h279.508v-35.826z"  horiz-adv-x="1024" />

    
    <glyph glyph-name="jiangjin1" unicode="&#58969;" d="M844.363713 553.340803a21.143553 21.143553 0 0 1-1.952468 0.091074c-2.89084 0-5.763261-0.587378-8.457626-1.669012l-79.660294-31.968086 1.853208 108.126626c0 11.17655-12.624529 23.774473-23.774473 23.774473H684.821067L584.363098 820.412464a20.196994 20.196994 0 0 1-12.518105 9.081843 20.141736 20.141736 0 0 1-15.257495-2.448772l-357.424483-220.450854c-9.497305-5.858428-12.458753-18.323321-6.615674-27.844162l22.49534-36.654828-24.088628 9.667174c-2.695389 1.081635-5.566786 1.669012-8.457626 1.669012-0.650823 0-1.301645-0.030699-1.953491-0.091074-30.433126-2.832512-54.431703-27.659967-54.431703-57.610092v-499.401055c0-31.831986 27.109428-57.879222 60.242035-57.879221h652.201136c33.132608 0 60.241013 26.047236 60.241013 57.879221V495.730711c0.001023 29.950126-23.997554 54.777581-54.431704 57.610092zM560.551786 781.961734l76.720336-130.265856H351.97333L560.551786 781.961734zM340.085582 604.146932h368.510982v-102.690823l-165.215856-66.302055a83.048461 83.048461 0 0 0-61.853743 0l-141.441383 56.760748V604.146932z m-46.440705 13.194511v-106.789165l-15.700587 6.300496-40.427758 65.871243 56.128345 34.617426z m557.601594-108.294449v-499.273141c0-9.431813-1.12052-23.774473-11.887748-23.774473 0 0-653.004431-7.070023-653.234675 0.493234-10.833743 2.172479-12.475126 14.259772-12.461823 23.281239V497.159246c0 7.637957 3.773953 9.654894 11.886725 11.887748L466.521203 397.57518a122.781394 122.781394 0 0 1 45.934168-8.874111c15.803941 0 31.259958 2.986007 45.931099 8.874111l286.004873 114.774023c8.108678-2.232854 6.855128 4.335748 6.855128-3.302209zM589.722152 152.423761h-59.436694v47.548946l60.269666 0.908695c10.617825 1.502213 19.944238 4.237511 19.97289 14.72947 0.029676 10.770298-8.714476 19.520589-19.485797 19.520589h-40.001039l37.945217 69.939909c4.815679 8.874111 1.958608 20.227694-6.373151 25.347294-8.355295 5.128811-19.012006 2.086521-23.825638-6.785543l-43.61331-80.359213a19.278065 19.278065 0 0 1-2.289136-8.141424h-0.179079c-0.155543 2.781346-0.874927 5.566786-2.251273 8.141424l-42.927695 80.359213c-4.739954 8.872065-15.244192 11.915377-23.462365 6.785543-8.220219-5.117554-11.037381-16.471137-6.277983-25.347294l37.367049-69.939909h-39.992853c-10.772344 0-19.48682-8.750291-19.48682-19.520589 0-10.774391 8.741082-15.637142 19.512403-15.637142h59.436693v-47.548946H435.18552c-10.772344 0-23.774473-1.11438-23.774473-11.887748 0-10.770298 12.977569-22.537296 23.748891-22.537296l59.462276-1.2382-1.004887-39.770796c0-9.68457 8.713452-17.556864 19.485797-17.556864 10.768251 0 17.181311 11.980869 17.181311 21.665439v35.662221l60.758806 1.2382c10.769274 0 19.484773 8.750291 19.484773 19.521613 0.001023 10.772344-10.036587 14.902408-20.805862 14.902408z m70.371744 370.20967c0 11.17655-9.039887 20.237927-20.189831 20.237926l-228.494041 1.837858c-11.150968 0-24.178679-10.899234-24.178679-22.075784 0-11.177574 13.027711-25.474185 24.178679-25.474185h225.861074c11.150968 0 22.822798 14.294564 22.822798 25.474185z"  horiz-adv-x="1024" />

    
    <glyph glyph-name="gou" unicode="&#58885;" d="M511.974 896c-282.755 0-511.974-229.219-511.974-511.974 0-282.757 229.219-511.974 511.974-511.974 282.757 0 511.974 229.217 511.974 511.974 0 282.755-229.219 511.974-511.974 511.974zM805.631 516.826l-331.12-331.123c0 0-0.004-0.004-0.010-0.010-15.265-15.269-38.541-17.653-56.311-7.157-3.291 1.946-6.394 4.333-9.22 7.157-0.002 0.004-0.006 0.006-0.006 0.006l-190.643 190.643c-18.095 18.095-18.095 47.438 0 65.537 18.095 18.095 47.437 18.095 65.533 0l157.885-157.885 298.362 298.362c18.097 18.095 47.44 18.095 65.535 0 18.091-18.095 18.091-47.435-0.004-65.531z"  horiz-adv-x="1025" />

    
    <glyph glyph-name="fuwu" unicode="&#58908;" d="M684.016274 853.986133c-23.823506-14.141539-183.663973-101.455275-294.331786-264.053636a31.393043 31.393043 0 0 0-42.131225-9.623288 30.571543 30.571543 0 0 0-9.271216 42.835367A861.34296 861.34296 0 0 0 503.051516 807.982121a23.999542 23.999542 0 0 1-2.581858 38.786546l-11.031574 7.217466C311.641969 966.94241-46.942869 853.810097 5.163716 475.920005c43.950261-317.275113 283.710962-487.853762 441.380322-567.069853 23.471434-11.735717 80.330984-36.850152 140.417855-36.850152 62.081944 0 114.833992 24.292935 138.246748 36.028652 157.66936 78.864019 399.014383 249.501347 442.964644 567.832674 52.341298 377.890092-293.392929 491.726549-484.215689 378.124807z"  horiz-adv-x="1173" />

    
    <glyph glyph-name="shenqingfanli" unicode="&#58893;" d="M552.8 781.6c0 14-5 25.9-14.9 35.6-10.3 9.8-22.5 14.6-36.9 14.6h-52.5c-14.5 0-26.8-4.8-36.8-14.6-10.1-9.7-15-21.6-15-35.6h-52.5v-101.4h261.1V781.6h-52.5z m-54.7-46.8c-6.4-6.2-14-9.3-23-9.3-9.4 0-17.4 3.1-23.4 9.3-6.1 6.2-9.1 13.6-9.1 22.3 0 9.2 3.1 16.7 9.1 22.7 6.2 5.8 13.9 8.9 23.4 8.9 9 0 16.5-2.9 23-8.9 6.4-5.9 9.7-13.5 9.7-22.7 0-8.6-3.2-16.1-9.7-22.3zM445.9 172.5c0-3.8 0-7.6-0.4-11.4-0.4-3.8-0.4-7.8-0.4-12.2 0-24.3 3.6-47.5 10.8-69.3 7.3-21.9 17.5-42 30.9-60.3H242.9c-10.4 0-22 2.9-34.6 8.8-12.6 6-24.3 13.8-35.1 23.5-10.8 9.8-19.9 20.9-27.1 33.3-7.3 12.4-10.8 25.4-10.8 38.9V625.9c0 11.3 2.8 23.1 8.3 35.2 5.7 12.2 12.8 23.4 21.8 33.7 8.9 10.3 19.3 18.7 30.9 25.7 11.7 6.7 24 10.1 36.8 10.1h59.3v-101.5h364.9V730.6H709c12.8 0 25.4-2.7 38-8.2 12.6-5.5 23.8-12.7 33.8-21.9 10-9.2 18.3-20.2 24.6-33.3 6.5-13 9.6-26.7 9.6-41.3v-287c-19.4 12.3-40.2 22.1-62.5 29.2-22.3 7.1-45.9 10.6-70.9 10.6h-5.8c10.1 3.8 18.3 10 24.8 18.6 6.2 8.7 9.6 18.5 9.6 29.3 0 14-5.1 25.8-15.5 35.6-10.3 9.8-22.5 14.6-36.9 14.6H292.9c-14.4 0-26.8-4.8-37.1-14.6-10.4-9.8-15.5-21.6-15.5-35.6 0-14.1 5.1-26.2 15.5-36.1 10.4-10 22.8-15 37.1-15h349.8c-33.4-5.5-63.7-16.9-90.8-34.4-27.3-17.6-49.9-39.9-67.7-66.8H293c-14.4 0-26.8-4.9-37.1-14.7-10.4-9.8-15.5-21.6-15.5-35.6s5.1-26.1 15.5-36c10.4-10 22.8-15 37.1-15h153.5l-0.6-0.5M685.2 345.8c-113.1 0-204.7-91.7-204.7-204.7 0-113.1 91.7-204.7 204.7-204.7 113.1 0 204.7 91.7 204.7 204.7s-91.7 204.7-204.7 204.7z m-49.9-111c0 4.5 0.3 8.5 1 11.9 0.7 3.5 1.9 6.4 3.8 8.7 1.9 2.3 4.5 4.1 7.9 5.2 3.4 1.1 7.8 1.7 13.2 1.7l18.5-0.3c15.5 0 33.4 0.6 53.7 1.7 20.4 1.1 37.9 2.5 52.5 4.2 1.5 0.2 3.2 0.3 5.2 0.4 2 0.1 4.1 0.1 6.3 0.1 4.5 0 8-1.3 10.5-3.9 2.5-2.6 3.8-6.5 3.8-11.5 0-4.9-1.3-8.7-3.8-11.4-2.5-2.7-6.4-4.6-11.7-5.8-5.4-1.1-21.2-2.2-47.2-3.4-26.2-1.1-51.3-1.7-75.3-1.7-2.1 0-3.6-0.5-4.5-1.5-0.9-1-1.4-3.2-1.4-6.6v-5.3c0-2.8 1.4-4.2 4.2-4.2h92.7c13.7 0 23.3-1.5 28.8-4.4 5.5-2.9 8.3-8 8.3-15.3 0-7.5-3.7-19.3-11.2-35.4-3.7-8.1-7.3-15.1-10.7-21.1-3.4-6-6.6-10.9-9.8-14.6-0.7-0.9-0.6-1.9 0.6-2.8 17-13.5 28.3-23 33.7-28.7 5.4-5.4 8.1-10.7 8.1-15.7 0-4.9-2.3-9-7-12.4-2.2-1.7-4.3-3-6.2-3.9-1.9-0.9-3.7-1.4-5.5-1.3-1.8 0.1-3.7 0.7-5.8 2-2.1 1.2-4.5 3-7.3 5.5-6.9 6-12.5 10.9-16.9 14.7-4.3 3.8-7.5 6.5-9.6 8l-6.7 5.3c-1.5 1.3-3.3 1.2-5.3-0.3-8.8-7.7-18.6-15-29.5-21.9-10.9-7.1-18.3-11.3-22.2-12.6-4.1-1.5-7.8-2.2-11-2.2-6.4 0-11 2-13.8 5.9s-4.2 7.4-4.2 10.5c0 3.1 0.9 5.7 2.8 7.7 1.9 1.9 6.7 4.7 14.6 8.4 7.9 3.6 16.3 8.6 25.3 15.2 9 6.4 13.5 10.3 13.5 11.8 0 0.2-0.2 0.5-0.6 0.8-0.2 0.2-3.7 2.6-10.4 7.3-6.6 4.7-13 8.9-19.4 12.6-6.2 3.6-9.3 7.7-9.3 12.4 0 3 1.9 6.6 5.6 10.7 3.6 4.1 7.5 6.2 11.8 6.2 4.1 0 10.1-2.2 17.8-6.7 7.8-4.5 16.8-10.4 27.1-17.7 0.2-0.6 0.5-0.8 1-0.8s1.1 0.5 2 1.4c0.8 0.9 2 2.5 3.5 4.6 1.5 2.2 3.4 5.1 5.6 8.8 2.8 4.7 5.1 9.4 6.9 14 1.8 4.7 2.7 7.7 2.7 9 0 1.5-0.4 2.4-1.3 2.8-0.8 0.4-2.6 0.6-5.2 0.6h-84.3c-2.8 0-4.2-1.3-4.2-3.9-0.8-26.2-3-49.1-6.7-68.5-3.4-19.1-6.9-31.3-10.7-36.5-3.7-4.9-7.7-7.3-11.8-7.3-3.9 0-7.8 1-11.5 3.1-3.6 2.2-5.3 5.1-5.3 8.4 0 3.7 1.5 11.5 4.5 23.3 6.6 25.8 9.8 62 9.8 108.4v12.6c0.3 4.5 0.2 9 0 13.7z m-78.1 26.6c3.2 4.3 6.6 6.5 10.4 6.5 3.7 0 7.3-0.8 10.7-2.5 1.9-0.7 4.6-2.2 8.3-4.2 3.7-2.1 8.4-4.9 14.2-8.4 11.6-7.1 18.5-12.2 20.8-15.2 2.4-3 3.7-6.4 3.7-10.1 0-3.7-1.8-7.7-5.3-11.8-3.7-3.9-7.6-5.9-11.5-5.9-3.2 0-6.5 1.1-9.8 3.4-7.7 5.4-14.5 10.1-20.5 13.9-6 3.8-11.2 7-15.7 9.4-6.4 3.4-9.6 7.8-9.6 13.2-0.2 3.7 1.3 7.6 4.3 11.7zM817.7 22c-2.3-2.7-5.1-4.3-8.3-4.6-1.5-0.2-4.9-0.4-10.3-0.6-5.3-0.2-12.5-0.4-21.5-0.6-18-0.6-38.2-0.8-60.7-0.8-11.2 0-21.3 0.1-30.3 0.4-9 0.3-16.9 0.6-23.6 1-13.9 0.9-24.2 3-30.9 6.2-7.1 3-15.5 9.5-25.3 19.4-3.4 3.4-6.6 5.1-9.8 5.1-3.2 0-5.7-2-7.6-5.9-4.7-10.9-8.7-18.4-12.1-22.6-3.4-4.2-6.6-6.3-9.8-6.3-3 0-7.3 1.3-12.9 3.9-5.4 2.6-8.1 6.9-8.1 12.9 0 8.1 4.3 16.5 12.9 25.3 9 9 15.7 14.8 20.2 17.4 1.5 1.1 2.2 2.3 2.2 3.7v67.7c0 3.7-1.4 5.6-4.2 5.6h-12.9c-5.2 0-9.4 1.5-12.4 4.5s-4.5 7-4.5 12.1 1.5 9.1 4.5 12.1 7.1 4.5 12.4 4.5h30.9c4.5 0 8.1-0.5 10.7-1.5 2.6-1 4.6-2.8 6-5.2 1.4-2.4 2.3-5.7 2.8-9.7 0.5-4 0.7-8.9 0.7-14.7v-76.4c0-1.7 0.6-2.9 1.7-3.7 0.6-0.4 1.4-1.1 2.7-2.1 1.2-1 2.8-2.5 4.6-4.4 1.9-1.9 3.7-3.5 5.3-4.8 1.7-1.3 3.3-2.4 4.8-3.4 3-1.9 7.2-3.4 12.6-4.6 5.4-1.2 12.6-2.1 21.6-2.7 9.2-0.7 21.6-1.1 37.2-1.1 15.6 0 32.5 0.3 50.7 0.8l46.1 1.1c6.4 0 11-1.4 13.8-4.4 2.8-2.9 4.2-6.9 4.2-11.9s-1-9-3.4-11.7z"  horiz-adv-x="1024" />

    
    <glyph glyph-name="kefu" unicode="&#58897;" d="M926.995856 426.742451a30.313795 30.313795 0 0 1-28.798106-28.494967v-269.792777a28.494967 28.494967 0 0 1 8.487863-20.007105 30.313795 30.313795 0 0 1 20.310243-8.487863h78.209591a28.494967 28.494967 0 0 1 20.007105 8.487863 28.494967 28.494967 0 0 1 8.487862 20.007105v269.792777a28.494967 28.494967 0 0 1-7.27531 19.097691 28.494967 28.494967 0 0 1-20.310243 8.487862z m-306.169331-411.661338l-3.03138 1.818828a46.683245 46.683245 0 0 1-60.62759-17.885139 46.076969 46.076969 0 0 1-6.062759-21.825933v-2.121966a44.258141 44.258141 0 0 1 1.515689-10.912966 46.076969 46.076969 0 0 1 19.703967-27.282415l3.637656-2.121966a46.683245 46.683245 0 0 1 60.62759 16.672587l1.818828 3.03138a46.683245 46.683245 0 0 1 3.637655 33.345174 46.076969 46.076969 0 0 1-20.310243 27.282416z m27.282415 50.3209a103.370041 103.370041 0 0 0 37.892244-141.262285A103.976317 103.976317 0 0 0 545.648313-114.055654a103.673179 103.673179 0 0 0-47.289521 60.62759H309.20071A461.375962 461.375962 0 0 0 90.941385 9.62463a173.698046 173.698046 0 0 0-90.941385 148.234458v240.085258a86.091178 86.091178 0 0 0 86.091178 85.78804h12.125518a452.584962 452.584962 0 0 0 901.532268 0h5.456483a86.091178 86.091178 0 0 0 60.62759-25.16045l1.818828-2.121966a85.78804 85.78804 0 0 0 23.64476-58.505624v-269.792777a85.484902 85.484902 0 0 0-25.463588-60.62759 86.091178 86.091178 0 0 0-60.62759-25.463588h-78.209591a86.091178 86.091178 0 0 0-60.627591 25.463588 85.78804 85.78804 0 0 0-25.463588 60.62759v269.792777a86.091178 86.091178 0 0 0 86.091179 85.78804h15.460035a394.079337 394.079337 0 0 1-786.642984 0h8.487863a85.78804 85.78804 0 0 0 60.62759-25.16045l1.818828-2.121966a85.78804 85.78804 0 0 0 23.64476-58.505624v-242.510361a28.798105 28.798105 0 0 0-57.293073 0v242.510361a28.494967 28.494967 0 0 1-7.578449 19.097691 28.494967 28.494967 0 0 1-20.007105 8.487862H86.091178a30.313795 30.313795 0 0 1-28.798105-28.494967v-240.388396A121.255181 121.255181 0 0 1 121.255181 57.823564a398.929544 398.929544 0 0 1 189.764357-53.655417h185.823564a105.795145 105.795145 0 0 0 9.700415 23.038484 103.370041 103.370041 0 0 0 141.565423 37.892244z"  horiz-adv-x="1091" />

    
    <glyph glyph-name="mima" unicode="&#58898;" d="M521.94 340.493c-41.25 0-74.68-33.43-74.68-74.68 0-29.72 17.511-55.18 42.674-67.188v-82.139c0-17.659 14.346-32.006 32.005-32.006 17.66 0 32.006 14.347 32.006 32.006v82.141c25.162 12.01 42.675 37.466 42.675 67.187 0 41.25-33.431 74.68-74.68 74.68z m309.356 149.33H191.28c-35.352 0-64.011-28.628-64.011-63.981v-426.677c0-35.352 28.66-64.012 64.011-64.012h640.017c35.318 0 63.978 28.66 63.978 64.012V425.842c0.001 35.352-28.658 63.98-63.978 63.98z m0-447.984c0-35.352-7.322-42.675-42.675-42.675H233.92c-35.352 0-42.64 7.322-42.64 42.675V383.167c0 35.352 7.288 42.675 42.64 42.675H788.62c35.352 0 42.675-7.322 42.675-42.675v-341.328zM208.867 522.025c17.769 0 32.219 14.161 32.706 31.812l0.067-0.004c28.924 122.258 138.526 213.339 269.631 213.339 102.48 0 191.683-55.771 239.629-138.476 4.989-11.293 16.28-19.178 29.42-19.178 17.758 0 32.153 14.396 32.153 32.155a32 32 0 0 1-5.926 18.589C747.562 762.31 637.63 831.185 511.271 831.185c-165.111 0-302.614-113.306-334.272-268.98-0.15-0.642-0.28-1.29-0.392-1.946-0.153-0.778-0.321-1.551-0.47-2.332l0.155-0.009c-0.1-1.04-0.154-2.095-0.154-3.162-0.001-18.078 14.652-32.731 32.729-32.731z"  horiz-adv-x="1024" />

    
    <glyph glyph-name="shangjia1" unicode="&#59217;" d="M921.30406 220.378455c0-51.723012-205.39802-226.285746-406.817426-246.179842h-0.497327C310.083268-5.410987 102.694917 169.15277 102.694917 220.378455V741.582071c16.411785 22.379707 216.33921 46.252417 390.405641 52.717666l19.396769-0.497327 17.903765 0.497327c174.563758-6.465249 374.491183-30.337959 390.902968-52.717666v-521.203616z m-390.405641 611.220793h-38.792515C315.553862 825.133999 64.400752 804.742577 64.400752 742.576725v-522.19827c0-78.081333 231.756341-261.596973 444.615287-283.479353l4.475941-0.497326h1.491981l4.475941 0.497326c214.84723 22.379707 440.139346 203.408713 440.139346 283.479353V742.576725c-0.001023 62.165852-251.15311 82.557274-428.700829 89.022523zM272.316106 630.89104h219.894175c0 1.442862-0.7552 2.921539-2.198061 4.39817-4.39817 11.715833-8.074909 19.035542-10.994402 21.988804-7.352455 13.193487-5.15337 23.432689 6.596232 30.785143 13.19451 4.39817 24.188912 0.721431 32.984228-10.994402 10.239202-17.591657 18.313088-32.984229 24.188912-46.177715h219.894176c11.715833 0 17.591657-6.596232 17.591657-19.790742s-5.874801-19.790742-17.591657-19.790742H272.316106c-11.749602 0-18.34788 6.596232-19.790742 19.790742 1.442862 13.193487 8.040117 19.790742 19.790742 19.790742z m369.421724-79.161944c-2.955308-8.79634-9.55154-23.466458-19.790742-43.978631h85.758176c38.10383 2.921539 55.695486-13.94971 52.77497-50.575885v-259.473613c2.921539-52.774971-35.938514-66.689888-116.543319-41.779546-13.19451 4.39817-18.34788 13.193487-15.392572 26.386974 4.39817 14.671141 13.19451 20.545942 26.386974 17.591657 48.376801-17.591657 69.610404-13.915941 63.769372 10.994402V450.578348c0 10.239202-5.15337 15.392572-15.392572 15.392572h-367.223662c-16.147772 1.442862-23.466458-5.15337-21.988804-19.790742v-279.264355c0-11.715833-6.596232-18.313088-19.790742-19.790742-14.671141 1.476631-21.988804 8.074909-21.988803 19.790742V461.571726c-2.955308 33.70566 12.437264 49.098231 46.177715 46.177716h96.752578c-2.955308 5.841032-6.596232 15.392572-10.994402 28.586059a3193.537054 3193.537054 0 0 0-6.596232 19.790741c-4.39817 14.637372 0 24.910343 13.193487 30.785144 13.19451 2.921539 22.710234-2.955308 28.586059-17.591657 0-1.476631 0.721431-3.676739 2.198062-6.596232 8.79634-24.944112 16.114003-43.2572 21.988803-54.973032H575.767326c11.715833 21.988804 20.512173 41.779545 26.386973 59.371203 5.841032 14.637372 15.392572 20.512173 28.586059 17.591656 13.195533-7.353478 16.838503-18.34788 10.997472-32.984228zM490.010173 426.389436c-36.659945-30.785144-82.838683-57.928341-138.533146-81.360006-14.671141-5.874801-25.665543-2.955308-32.984229 8.79634-5.874801 13.193487-2.198062 22.710234 10.994402 28.585035 45.422516 17.591657 90.156346 43.222407 134.135999 76.96286 11.715833 8.79634 21.988804 8.040117 30.785144-2.198062 7.318686-10.273994 5.841032-20.546965-4.39817-30.786167z m-61.570287-59.371202h175.915545c30.785144 1.442862 45.422516-11.749602 43.978631-39.579438v-94.554516c1.442862-24.910343-11.749602-36.626175-39.581484-35.183313H428.439886c-27.864628-1.442862-41.058115 8.79634-39.581484 30.785143V331.835943c-1.475608 24.909319 11.717879 36.626175 39.581484 35.182291z m160.522973-131.935892c10.239202 1.442862 15.392572 6.596232 15.392572 15.392572v61.570287c0 8.79634-5.15337 13.193487-15.392572 13.193487H446.032566c-10.272971 1.442862-14.671141-2.955308-13.193487-13.193487v-63.769372c0-8.79634 4.39817-13.19451 13.193487-13.19451l142.930293 0.001023z m112.14515 140.731208c10.239202-11.749602 10.994402-22.744004 2.198061-32.983205-10.272971-8.79634-21.267373-8.074909-32.984228 2.198062-29.342282 29.30749-60.848856 54.972009-94.554516 76.962859-11.749602 8.79634-14.671141 19.035542-8.79634 30.785144 7.317663 10.239202 17.591657 11.715833 30.785143 4.39817 33.708729-21.989827 68.169589-49.132001 103.35188-81.36103z"  horiz-adv-x="1024" />

    
    <glyph glyph-name="jiudian1" unicode="&#58881;" d="M1028.916 57.391h-63.125v489.564c0 35.536-18.703 72.943-54.706 72.943h-151.499c-23.846 0-53.773-27.121-53.773-51.435v-511.072h-42.549v749.539c0 35.536-19.17 72.943-55.175 72.943h-476.003c-35.536 0-75.281-37.407-75.281-72.943v-749.539h-62.657c-1.403 0-2.337-0.934-2.337-2.337v-167.395c0-1.403 0.934-2.337 2.337-2.337h1034.769c1.403 0 2.337 0.934 2.337 2.337v167.395c0 1.403-0.934 2.337-2.337 2.337zM314.444 317.837c0-23.846-19.17-43.486-43.486-43.486h-85.101c-23.846 0-43.486 19.17-43.486 43.486v85.568c0 23.846 19.17 43.486 43.486 43.486h85.568c23.846 0 43.486-19.17 43.486-43.486v-85.568h-0.467zM314.444 579.218c0-23.846-19.17-43.486-43.486-43.486h-85.101c-23.846 0-43.486 19.17-43.486 43.486v85.101c0 23.846 19.17 43.486 43.486 43.486h85.568c23.846 0 43.486-19.17 43.486-43.486v-85.101h-0.467zM574.423 317.837c0-23.846-19.17-43.486-43.486-43.486h-85.568c-23.846 0-43.486 19.17-43.486 43.486v85.568c0 23.846 19.17 43.486 43.486 43.486h85.568c23.846 0 43.486-19.17 43.486-43.486v-85.568zM574.423 579.218c0-23.846-19.17-43.486-43.486-43.486h-85.568c-23.846 0-43.486 19.17-43.486 43.486v85.101c0 23.846 19.17 43.486 43.486 43.486h85.568c23.846 0 43.486-19.17 43.486-43.486v-85.101zM900.797 188.782c0-23.846-19.17-43.486-43.486-43.486h-42.549c-23.846 0-43.486 19.17-43.486 43.486v42.549c0 23.846 19.17 43.486 43.486 43.486h42.549c23.846 0 43.486-19.17 43.486-43.486v-42.549zM900.797 404.807c0-23.846-19.17-43.486-43.486-43.486h-42.549c-23.846 0-43.486 19.17-43.486 43.486v42.549c0 23.846 19.17 43.486 43.486 43.486h42.549c23.846 0 43.486-19.17 43.486-43.486v-42.549z"  horiz-adv-x="1024" />

    
    <glyph glyph-name="xiaofei" unicode="&#58901;" d="M751.331805 484.128173c-61.839725 0-118.804392-20.686242-164.491928-55.553651h-411.834826c-18.452216 0-33.610394-15.188178-33.610394-33.674394v-4.500053c0-18.486217 15.156178-33.663394 33.610394-33.663394h346.220057c-25.739302-40.873479-40.896479-89.143045-41.610488-140.891652H175.003051c-18.452216 0-33.610394-15.188178-33.610394-33.673394v-4.499053c0-18.476217 15.155178-33.675395 33.610394-33.675395h313.088669c17.370204-67.932796 60.261706-125.591472 117.80838-162.1609h-508.805962c-52.648617 0-95.648121 43.163506-95.648121 95.820123V707.531791c0 52.756618 43.084505 95.819123 95.648121 95.819123h830.069727c52.668617 0 95.667121-43.160506 95.667121-95.819123v-485.59369c-5.289062 145.680707-124.786462 262.190073-271.499181 262.190072z m131.557541 123.487447c0 18.495217-15.156178 33.674395-33.610394 33.674395H175.007051c-18.453216 0-33.612394-15.178178-33.612394-33.674395v-4.487052c0-18.485217 15.157178-33.673395 33.612394-33.673395h674.271901c18.451216 0 33.610394 15.188178 33.610394 33.673395v4.487052zM751.331805 428.867526c119.586401 0 216.642539-97.109138 216.642538-217.022543 0-119.900405-97.056137-217.021543-216.642538-217.021544-119.606402 0-216.640539 97.121138-216.640539 217.021544 0.001 119.801404 96.950136 217.022543 216.640539 217.022543z m-69.797818-282.950316h60.951714v-60.041704c0-8.371098 6.244073-15.168178 13.943163-15.168177 7.69709 0 13.964164 6.79808 13.964164 15.168177v60.041704h60.497709c7.69709 0 13.964164 6.79708 13.964164 15.155178 0 8.370098-6.270073 15.168178-13.964164 15.168177h-60.497709v43.214507h60.842713c7.69909 0 13.965164 6.80808 13.965164 15.167177s-6.269073 15.168178-13.965164 15.168178h-55.572651l56.051657 60.930714c2.646031 2.861034 4.100048 6.656078 4.100048 10.711126 0 4.054048-1.453017 7.850092-4.100048 10.710125-2.624031 2.873034-6.137072 4.444052-9.866116 4.444052-3.707043 0-7.221085-1.569018-9.865116-4.444052l-56.159658-61.019715-56.681664 61.594722c-2.623031 2.862034-6.139072 4.433052-9.845115 4.433052-3.729044 0-7.244085-1.570018-9.866116-4.433052-2.647031-2.872034-4.099048-6.680078-4.099048-10.722126 0-4.055048 1.451017-7.871092 4.099048-10.733125l56.572663-61.474721h-54.036633c-7.70009 0-13.965164-6.80908-13.965164-15.168178 0-8.360098 6.268073-15.167178 13.965164-15.167177h60.519709v-43.214507h-60.951714c-7.69809 0-13.942163-6.79908-13.942164-15.168177 0-8.357098 6.241073-15.155178 13.941164-15.155178v0.003z"  horiz-adv-x="1024" />

    
    <glyph glyph-name="dianhua" unicode="&#59039;" d="M637.050592-128c-5.104106 0-10.208212 0-15.312317 2.552053-84.217746 12.760265-219.47655 66.353376-382.807936 242.445026-142.914963 158.22728-222.028603 311.350455-204.164233 410.880518 12.760265 99.530063 155.675227 160.779333 160.779334 163.331386 12.760265 5.104106 28.072582 0 33.176687-10.208211l119.946487-201.61218c5.104106-7.656159 5.104106-15.312317 2.552053-22.968476-2.552053-7.656159-7.656159-12.760265-15.312318-15.312318 0 0-15.312317-7.656159-17.86437-25.520529-5.104106-20.416423 0-66.353376 71.457481-150.571121 45.936952-56.145164 94.425958-86.769799 135.258805-86.769799 38.280794-2.552053 61.24927 22.968476 63.801322 22.968476 10.208212 10.208212 25.520529 10.208212 35.728741 2.552053l188.851915-142.914963c10.208212-7.656159 12.760265-22.968476 7.656159-33.176688-5.104106-7.656159-79.11364-155.675227-183.74781-155.675227zM195.54544 632.511766c-40.832847-22.968476-102.082116-66.353376-109.738276-114.84238-10.208212-63.801323 35.728741-193.956021 191.403969-364.943566 153.123174-165.883439 275.621714-214.372444 349.631248-227.132709 53.593111-7.656159 107.186222 61.24927 132.706751 104.634169l-153.123174 114.842381c-17.86437-12.760265-45.936952-25.520529-84.217746-25.520529-58.697217 2.552053-117.394434 38.280794-176.091651 107.186222-66.353376 79.11364-94.425958 145.467016-81.665693 199.060127 5.104106 20.416423 15.312317 35.728741 25.520529 43.384899l-94.425957 163.331386zM966.265417 308.401047c-12.760265 0-25.520529 10.208212-25.520529 22.968476-2.552053 15.312317-5.104106 33.176688-7.656158 48.489006-2.552053 15.312317 7.656159 28.072582 20.416423 30.624634 15.312317 2.552053 28.072582-7.656159 30.624635-20.416423 2.552053-17.86437 7.656159-35.728741 7.656159-53.593111 2.552053-15.312317-7.656159-28.072582-22.968477-30.624635 0 2.552053 0 2.552053-2.552053 2.552053z m-40.832846 160.779333c-10.208212 0-20.416423 7.656159-25.520529 17.864371-5.104106 10.208212-7.656159 20.416423-12.760265 30.624635-20.416423 45.936952-48.489005 89.321852-81.665693 130.154698-74.009534 89.321852-168.435492 158.22728-278.173767 196.508074-15.312317 5.104106-20.416423 20.416423-17.86437 33.176687 5.104106 15.312317 20.416423 20.416423 33.176688 17.864371 119.946487-40.832847 224.580656-114.842381 303.694296-211.820391 35.728741-43.384899 63.801323-89.321852 86.769799-140.36291 5.104106-10.208212 10.208212-20.416423 12.760264-33.176688 5.104106-12.760265-2.552053-30.624635-15.312317-35.728741 2.552053-5.104106-2.552053-5.104106-5.104106-5.104106zM802.934031 310.9531c-12.760265 0-22.968476 10.208212-25.520529 22.968476-12.760265 76.561587-45.936952 148.019069-94.425957 209.268339-48.489005 61.24927-112.290328 107.186222-183.74781 135.258804-12.760265 5.104106-20.416423 20.416423-15.312317 35.72874 5.104106 12.760265 20.416423 20.416423 35.728741 15.312318 79.11364-33.176688 150.571122-84.217746 206.716285-153.123175 53.593111-68.905428 91.873905-148.019069 107.186222-234.788867 2.552053-15.312317-7.656159-28.072582-22.968476-30.624635-5.104106 2.552053-5.104106 0-7.656159 0zM634.49854 321.161312c-12.760265 0-22.968476 7.656159-25.52053 20.416423-10.208212 35.728741-28.072582 71.457481-53.593111 102.082116-25.520529 30.624635-56.145164 56.145164-89.321851 74.009535-12.760265 7.656159-17.86437 22.968476-10.208212 35.72874 7.656159 12.760265 22.968476 17.86437 35.728741 10.208212 40.832847-22.968476 76.561587-51.041058 107.186222-89.321852 28.072582-35.728741 51.041058-76.561587 63.801323-119.946487 5.104106-15.312317-5.104106-28.072582-17.864371-33.176687h-10.208211z"  horiz-adv-x="1024" />

    
    <glyph glyph-name="phone" unicode="&#58966;" d="M375 553s-156.2-121.7 37-278.5c0 0 166.9-178.7 319.7-44.3 0 0 65 51.1 154.6-56.2 0 0 122.2-143.9-46.6-194.3 0 0-298.2-76.7-568.3 257.4 0 0-305.3 409.1-105.4 550.3 0 0 61 37.5 139.9-42.5 0-0.1 121.7-127.3 69.1-191.9z"  horiz-adv-x="1024" />

    
    <glyph glyph-name="weixin" unicode="&#59159;" d="M579.52785 384.44329a24.676479 24.676479 0 0 1-23.346609-24.233189 24.233189 24.233189 0 0 1 23.346609-21.721212c17.583838 0 29.55267 10.786724 29.552669 21.721212a27.040693 27.040693 0 0 1-29.552669 24.233189zM502.395382 497.038961a27.779509 27.779509 0 0 1 29.55267 29.55267 27.336219 27.336219 0 0 1-29.55267 29.552669 31.32583 31.32583 0 0 1-34.133333-29.552669A31.916883 31.916883 0 0 1 502.395382 497.038961zM512 896A512 512 0 1 1 1024 384 512 512 0 0 1 512 896zM415.215007 254.263781a275.87417 275.87417 0 0 0-82.599711 13.298701l-84.225108-42.555844 24.233189 71.665223c-59.105339 41.669264-94.273016 94.273016-94.273016 158.550073 0 113.482251 106.8329 200.219336 236.421356 200.219336 115.107648 0 217.655411-68.41443 237.751227-165.199423a116.141991 116.141991 0 0 1-22.460029 2.511977C517.171717 492.901587 429.400289 408.380952 429.400289 304.946609a200.958153 200.958153 0 0 1 6.64935-50.091775 174.508514 174.508514 0 0 0-20.834632-0.88658zM763.049928 171.959596l16.697258-59.105339-63.390476 35.463203a359.508225 359.508225 0 0 0-71.665224-12.559884c-111.709091 0-200.219336 76.689177-200.219336 171.848773s88.658009 171.848773 200.219336 171.848774c105.94632 0 200.958153-76.689177 200.958153-171.848774 0-53.342569-35.906494-100.922367-82.599711-135.203463zM337.63925 556.1443a32.951227 32.951227 0 0 1-35.906494-29.552669 33.54228 33.54228 0 0 1 35.906494-29.55267 28.666089 28.666089 0 0 1 29.552669 29.55267 28.222799 28.222799 0 0 1-29.552669 29.552669zM710.446176 384.44329a24.085426 24.085426 0 0 1-23.346609-24.233189 23.642136 23.642136 0 0 1 23.346609-21.721212 26.745166 26.745166 0 0 1 29.55267 21.721212 26.745166 26.745166 0 0 1-29.55267 24.233189z"  horiz-adv-x="1024" />

    
    <glyph glyph-name="dingdanzhifuye-dingwei" unicode="&#58895;" d="M511.95194 704.04803c-90.479986 0-164.095974-72.207989-164.095974-160.911975 0-88.687986 73.615988-160.815975 164.095974-160.815975S675.999914 454.448069 675.999914 543.136055c0 88.719986-73.583989 160.911975-164.047974 160.911975z m0-250.463961c-50.303992 0-91.215986 40.191994-91.215986 89.599986 0 49.391992 40.911994 89.615986 91.215986 89.615986 50.271992 0 91.183986-40.223994 91.183986-89.615986-0.016-49.423992-40.911994-89.599986-91.183986-89.599986z m0 442.415931C300.207973 896 128 726.992026 128 519.264059c0-162.943975 236.431963-491.231923 338.159947-624.799903A57.695991 57.695991 0 0 1 511.95194-127.99984c17.919997 0 35.087995 8.367999 45.839993 22.463996C659.455917 28.032136 895.99988 356.288084 895.99988 519.264059 895.99988 726.992026 723.711907 896 511.95194 896z m6.047999-944.495852l-6.047999-8.047999-6.063999 8.047999c-191.99997 254.81596-311.359951 472.383926-311.359951 567.759911 0 171.711973 142.367978 311.423951 317.42395 311.423951 175.023973 0 317.39195-139.695978 317.39195-311.423951 0.032-95.423985-119.247981-312.943951-311.343951-567.759911z"  horiz-adv-x="1024" />

    
    <glyph glyph-name="zhongguogongshangyinhang" unicode="&#59467;" d="M513.7408 896L461.312 892.6208l-28.0064-3.5328-24.576-3.4816-24.3712-7.0656-24.5248-6.9632-45.4144-17.4592-45.3632-20.992-20.992-10.3936-20.9408-14.1312-20.992-13.9264-20.992-17.408-17.5104-14.0288-17.408-17.5616-31.4368-34.9184-17.5104-20.8896-13.9776-21.0944-24.4736-41.8816-10.3936-20.992-10.496-24.4224-10.496-20.992-6.9632-24.4736-14.1312-48.9472-3.4304-24.4736-3.4304-27.904L0 382.2592l3.5328-52.48 3.4304-24.4224 3.4304-24.4736 7.0656-24.4224 7.0656-24.4224 17.408-49.0496 20.9408-41.8816 10.496-24.4224 13.9776-21.0432 13.9776-17.408 17.5104-20.992 13.9264-17.408 17.4592-17.5616 35.0208-34.9696 20.992-13.9776 20.992-13.9264 41.8816-24.4224 20.992-14.08 24.3712-10.3936 20.992-7.0656 24.4224-10.3936 48.9472-10.5984 24.5248-3.4304 28.0064-3.5328 52.3776-3.4304 52.3776 3.4304 24.4224 3.5328 24.5248 3.4304 24.4736 3.5328 24.4224 7.0656 49.0496 17.408 41.8816 24.576 24.4224 10.3936 20.992 13.9776 17.408 13.9264 20.992 13.9776 17.5616 17.5104 17.408 17.4592 34.9696 34.9184 14.08 21.0432 13.824 17.408 24.4736 45.4656 13.9776 20.992 10.496 20.8896 7.0656 24.5248 10.496 24.5248 10.496 48.8448 3.5328 24.4736 3.4304 24.4224 3.4304 52.48-3.4304 52.4288-3.4304 27.904-3.584 24.4736-7.0144 24.5248-3.4304 24.4224-17.5616 45.4656-24.4736 45.4144-10.4448 20.9408-13.9776 20.992-13.8752 20.992-14.08 20.9408-17.5616 17.4592-17.408 17.4592-34.9696 31.5392-20.992 17.4592-17.408 13.9264-45.4144 24.5248-20.992 10.496-20.8896 10.496-24.576 10.496-24.4736 6.9632-48.896 14.0288-24.576 3.4816-24.3712 3.584L513.7408 896z m-62.976-919.1424l-20.992 3.4304-38.2976 10.496-38.4512 14.0288-35.0208 17.4592-34.9696 21.0432-31.3856 24.3712-31.488 24.4224-24.5248 31.5392-13.824 13.9264-10.5984 17.4592-20.992 31.488-17.408 38.4-13.9776 34.9696-10.496 41.984-3.5328 38.5024-3.4816 41.8816v20.992l3.4816 20.992v20.8896l3.584 20.992 10.4448 38.5024 13.9264 38.4 17.4592 34.8672 20.992 35.072 24.4224 31.488 24.5248 27.8528 31.488 27.9552 13.9264 14.0288 17.408 10.496 35.0208 20.8896 35.0208 17.5616 38.4 13.9776 38.4 10.496 41.984 3.4304 41.9328 3.584h20.992l20.992-3.584h20.992l17.3568-3.4304 41.984-10.496 34.9696-13.9776 38.4-17.5616 31.4368-20.8896 31.488-24.5248 31.4368-27.9552 24.5248-27.8528 13.9264-14.0288 10.496-17.408 20.992-35.1232 17.408-34.816 14.0288-38.4512 10.4448-38.5024 7.1168-41.8816v-83.8656l-3.584-20.992-3.584-17.5104-10.3936-41.984-14.08-34.9184-17.408-38.4-20.992-31.5392-24.3712-31.3856-24.5248-31.5392-31.4368-24.4224-13.9776-13.824-17.5104-10.5472-31.488-20.992-38.4-17.5104-34.9696-14.0288-41.984-10.496-38.2976-6.9632h-83.968l-20.992 3.584zM720.0256 654.848h-171.3152v-73.3696h171.3152v-76.8512h-171.3152v-227.2256h171.3152v-83.8144h-171.3152v-73.472h251.5968V350.7712h-171.2128V427.7248H800.256V654.848h-80.2816z m-416 0H223.744v-227.1232H394.9056v-76.9536H223.6928V120.1152h251.5968v73.472H303.9744v83.8144h171.3152V504.6272H303.9744V581.4784h171.3152V654.848H303.9744z"  horiz-adv-x="1024" />

    
    <glyph glyph-name="weixin1" unicode="&#58904;" d="M512-128a512 512 0 1 0 512 512 512 512 0 0 0-512-512z m111.8208 623.2064h20.48c-20.48 93.5936-117.76 160.9728-229.5808 160.9728C288.3584 656.1792 187.8016 571.1872 187.8016 459.9808c0-64.3072 35.2256-114.0736 91.136-155.0336l-23.552-70.2464 79.4624 40.96a372.3264 372.3264 0 0 1 79.4624-11.6736h20.48a128.2048 128.2048 0 0 0-5.9392 46.8992 188.0064 188.0064 0 0 0 194.1504 184.32z m-122.88 61.44a29.2864 29.2864 0 1 0 0-58.5728A32.9728 32.9728 0 0 0 464.896 527.36c0 20.48 17.8176 29.2864 35.4304 29.2864z m-159.5392-55.7056a32.9728 32.9728 0 0 0-35.2256 29.2864 32.9728 32.9728 0 0 0 35.2256 29.2864 29.2864 29.2864 0 1 0 0-58.5728z m488.448-184.32c0 90.7264-91.136 166.7072-194.1504 166.7072-108.9536 0-194.1504-75.9808-194.1504-166.7072s85.4016-166.7072 194.1504-166.7072a273.8176 273.8176 0 0 1 67.584 11.6736l61.44-35.0208-17.6128 58.5728c49.9712 35.0208 81.92 81.92 81.92 131.6864z m-256 29.2864a23.3472 23.3472 0 1 0 0 46.8992 26.8288 26.8288 0 0 0 29.4912-23.3472 26.8288 26.8288 0 0 0-29.4912-23.552z m126.5664 0a23.3472 23.3472 0 1 0 0 46.8992 26.8288 26.8288 0 0 0 29.4912-23.3472A29.0816 29.0816 0 0 0 699.8016 345.9072z"  horiz-adv-x="1027" />

    
    <glyph glyph-name="jijinshuju" unicode="&#58902;" d="M512 92.16c-261.12 0-471.04 66.56-471.04 148.48v-174.08c0-81.92 209.92-148.48 471.04-148.48 30.72 0 66.56 0 97.28 5.12-56.32 35.84-87.04 97.28-97.28 168.96zM512 855.04C250.88 855.04 40.96 788.48 40.96 706.56V588.8c0-81.92 209.92-148.48 471.04-148.48s471.04 66.56 471.04 148.48V706.56c0 81.92-209.92 148.48-471.04 148.48z m276.48-471.04c71.68-5.12 138.24-35.84 184.32-87.04 5.12 10.24 10.24 20.48 10.24 30.72V501.76c0-51.2-76.8-92.16-194.56-117.76zM512 179.2h5.12c20.48 81.92 76.8 153.6 158.72 184.32-51.2-5.12-107.52-10.24-163.84-10.24C250.88 353.28 40.96 419.84 40.96 501.76v-174.08C40.96 245.76 250.88 179.2 512 179.2z m266.24 148.48c-112.64 0-199.68-87.04-199.68-199.68 0-66.56 30.72-122.88 81.92-158.72l61.44 46.08s5.12 5.12 10.24 5.12 10.24-5.12 10.24-5.12l35.84-46.08 128 97.28s0 5.12 5.12 10.24h10.24c15.36 0 40.96 5.12 51.2 5.12 5.12 5.12 5.12 15.36 5.12 15.36v25.6c0 112.64-92.16 204.8-199.68 204.8z m81.92-97.28s-5.12 0 0 0l-51.2-81.92h30.72c10.24 0 15.36-5.12 15.36-10.24s-5.12-10.24-15.36-10.24h-46.08v-20.48h46.08c10.24 0 15.36-5.12 15.36-10.24s-5.12-10.24-15.36-10.24h-46.08v-51.2c0-10.24-5.12-10.24-15.36-10.24-10.24 0-15.36 5.12-15.36 10.24v51.2H716.8c-10.24 0-15.36 5.12-15.36 10.24s5.12 10.24 15.36 10.24h46.08V128H716.8c-10.24 0-15.36 5.12-15.36 10.24s5.12 10.24 15.36 10.24h30.72l-51.2 81.92v5.12c0 5.12-5.12 5.12-5.12 10.24s5.12 10.24 10.24 10.24 10.24-5.12 15.36-10.24l56.32-87.04 56.32 87.04c5.12 5.12 10.24 10.24 15.36 10.24 5.12 0 10.24-5.12 10.24-10.24 5.12-5.12 5.12-10.24 5.12-15.36z m97.28-158.72l-30.72-5.12c-5.12 0-5.12-5.12-10.24-5.12v-10.24l5.12-5.12-143.36-107.52-40.96 46.08c-5.12 5.12-10.24 5.12-15.36 0-15.36-10.24-40.96-30.72-46.08-30.72-5.12-5.12-10.24-10.24-5.12-15.36 0-5.12 10.24-10.24 15.36-5.12 0 0 5.12 0 40.96 30.72l40.96-46.08c5.12-5.12 10.24-5.12 15.36 0l153.6 112.64v-5.12s5.12-5.12 10.24-5.12 5.12 5.12 10.24 5.12l15.36 30.72v10.24c-5.12 5.12-10.24 5.12-15.36 5.12z"  horiz-adv-x="1024" />

    
    <glyph glyph-name="zhanghao" unicode="&#58899;" d="M1003.967078-6.782307a498.943064 498.943064 0 0 1-347.327349 388.287272 277.823479 277.823479 0 1 1-144.959728-41.279923 436.415182 436.415182 0 0 0 429.567194-358.399328 40.447924 40.447924 0 0 0-39.423926-47.295911H121.472732a39.231926 39.231926 0 0 0-30.655942 14.271973 41.471922 41.471922 0 0 0-8.895984 34.047936 440.191175 440.191175 0 0 0 226.623575 306.879425 31.423941 31.423941 0 1 1-29.375944 55.743895 503.679056 503.679056 0 0 1-259.007515-350.719342c-5.695989-30.463943 2.431995-61.887884 22.271958-85.759839 19.519963-23.487956 48.511909-37.055931 79.039852-36.991931h780.478537a103.039807 103.039807 0 0 1 102.015809 121.215773zM296.192405 618.75252a214.783597 214.783597 0 1 0 214.847597-214.847597 215.743595 215.743595 0 0 0-214.847597 214.847597z"  horiz-adv-x="1024" />

    
    <glyph glyph-name="suanpan" unicode="&#58983;" d="M149.2-61.3c-46.4 0-84.1 37.7-84.1 84.1V747.7c0 46.4 37.7 84.1 84.1 84.1h724.9c46.4 0 84.1-37.7 84.1-84.1v-724.9c0-46.4-37.7-84.1-84.1-84.1H149.2zM109 33.1c0-27.9 22.7-50.5 50.5-50.5h704.2c27.9 0 50.5 22.7 50.5 50.5V208.2h-94.9l-1-8c-4.2-34.7-21-54.6-46-54.6s-41.8 19.9-46.1 54.7l-1 8h-58.4l-1.1-7.9c-4.5-33.8-21.1-53.1-45.7-53.1s-41.3 19.4-45.8 53.1l-1.1 7.9h-53.8l-0.9-8.1c-4-34.7-21.2-55.4-46.1-55.4-24.8 0-42 20.7-46.1 55.4l-0.9 8H109v-175.1z m511.2 282.6c25.3 0 42.1-20.2 46.1-55.5l0.9-8.1h58.2l1 8c4.2 34.3 21 54.1 46.1 54.1s41.8-19.7 46-54l1-8h94.8v267h-94l-0.9-8.1c-2.8-24.3-13.1-53.2-46.1-53.2-32.9 0-43.2 28.9-46.1 53.2l-0.9 8.1H445.4l-0.9-8.1c-4-34.3-20.8-54-46.1-54s-42.1 19.7-46.1 54l-0.9 8.1h-55.9l-0.9-8.1c-2.7-24.6-13-53.9-46.1-53.9s-43.3 29.3-46.1 53.9l-0.9 8.1H109v-267.1h316.7l1 8c4.3 33.8 21 53.2 45.9 53.2s41.6-19.4 45.9-53.2l1-8h53.6l0.9 8.1c3.9 35.3 20.8 55.5 46.2 55.5z m152.9 309.2c24.7 0 41.5-19.8 45.9-54.3l1-7.9h94.1l0.1 9.1V737.4c0 27.9-22.7 50.5-50.5 50.5H159.5c-27.9 0-50.5-22.7-50.5-50.5v-174.7h92.7l1.1 7.9c4.5 34.1 21.2 53.6 45.8 53.6 24.6 0 41.2-19.5 45.7-53.6l1-7.9h56.1l1 8c4.4 34.5 21.1 54.3 45.9 54.3 24.8 0 41.5-19.8 45.9-54.3l1-8h280.9l1 8c4.5 34.4 21.2 54.2 46 54.2z"  horiz-adv-x="1024" />

    
    <glyph glyph-name="gerenziliao" unicode="&#58921;" d="M773.638986 600.097934C773.638986 763.259259 644.830565 896 486.479844 896S199.320702 763.259259 199.320702 600.097934c0-111.272671 59.962885-208.293177 148.28039-258.804523C174.349474 277.138713 50.102144 106.242495 50.102144-94.066277c0-17.735361 13.97271-32.117271 31.139182-32.117271a31.608265 31.608265 0 0 1 31.179103 31.598285v0.548928c0 219.57115 173.391345 398.312047 386.485146 398.312047a30.12117 30.12117 0 0 1 7.984406 1.157738C655.509708 315.853099 773.638986 443.883041 773.638986 600.097934zM486.479844 368.380507c-123.967875 0-224.800936 103.927018-224.800936 231.667524s100.803119 231.667524 224.800936 231.667525 224.850838-103.936998 224.850838-231.667525-100.803119-231.667524-224.840857-231.667524z m59.773255-167.752359c0-17.735361 13.97271-32.127251 31.179104-32.127251h365.286549a31.658168 31.658168 0 0 1 31.179104 31.658167v0.499026 0.449122a31.658168 31.658168 0 0 1-31.159143 31.648188h-365.286549a31.658168 31.658168 0 0 1-31.179104-31.648188v-0.499025z m396.455673-99.186277h-365.28655a31.658168 31.658168 0 0 1-31.179103-31.638206v-0.499026c0-17.705419 13.97271-32.09731 31.179103-32.09731h365.28655a31.618246 31.618246 0 0 1 31.189084 31.598285v0.998051a31.648187 31.648187 0 0 1-31.159143 31.638206z m0-147.382144h-365.28655c-17.216374 0-31.179103-14.341988-31.179103-32.127251s13.97271-32.117271 31.179103-32.117271h365.28655c17.256296 0 31.179103 14.341988 31.179103 32.117271s-13.97271 32.127251-31.179103 32.127251z m0 0"  horiz-adv-x="1024" />

    
    <glyph glyph-name="shangjia2" unicode="&#58883;" d="M910.534469-30.444731h-781.763441V363.07957a174.850753 174.850753 0 0 1 44.593548-5.835699 172.868817 172.868817 0 0 1 147.268818 82.580645 172.75871 172.75871 0 0 1 293.711828-1.32129 172.75871 172.75871 0 0 1 293.711827 1.32129A172.923871 172.923871 0 0 1 1096.175759 361.978495v-6.606452a223.903656 223.903656 0 0 0 54.062796-12.662366v43.052043a174.135054 174.135054 0 0 1 78.341505 145.507097l-0.385376 60.283871a24.553978 24.553978 0 0 1-1.266237 8.03785L1144.678125 868.858495A27.086452 27.086452 0 0 1 1117.591673 896H114.787372a27.086452 27.086452 0 0 1-27.031398-27.141505v1.376344a18.773333 18.773333 0 0 1-0.935914-2.47742L1.761996 601.021935A28.683011 28.683011 0 0 1 0.495759 593.204301L0.000275 531.378925a174.135054 174.135054 0 0 1 76.524731-144.516129 28.407742 28.407742 0 0 1-2.036989-10.405162v-434.043871a27.086452 27.086452 0 0 1 27.031398-27.141505h862.802581l-51.530323 51.750538c-0.770753 0.825806-1.486452 1.706667-2.257204 2.532473zM54.063071 531.15871l0.495484 57.255914L132.129308 832.302796h965.092473l76.8-245.044301v-55.989678a119.08129 119.08129 0 1 0-238.107527 0 27.086452 27.086452 0 0 1-27.031398 27.141506h-2.202151a27.086452 27.086452 0 0 1-27.031397-27.141506 119.136344 119.136344 0 1 0-238.272689 0 27.086452 27.086452 0 0 1-27.031397 27.141506h-0.550538a27.086452 27.086452 0 0 1-27.031398-27.141506 119.191398 119.191398 0 1 0-238.382796 0 27.086452 27.086452 0 0 1-27.031398 27.141506H319.312103a27.086452 27.086452 0 0 1-27.031398-27.141506 119.191398 119.191398 0 1 0-238.382795 0zM1073.163286 313.531183a183.053763 183.053763 0 0 1-128.550538-312.430108l45.529463-45.749677 14.148817 14.203871-45.474409 45.584516a162.07828 162.07828 0 1 0 242.236559 15.525161l14.258925-14.313978a183.053763 183.053763 0 0 1-142.313978 296.96zM1073.163286-99.537204l-54.668387 54.943656-14.203871-14.258925L1073.163286-128l128.935914 129.541505-14.148817 14.203871-114.787097-115.28258zM1116.655759 205.625806l-28.572903-52.851612a287.325591 287.325591 0 0 1-13.983656-28.572904h-0.550538q-7.542366 17.231828-42.501505 81.424516h-26.866237l49.933764-86.159139H1012.989523V97.72043h48.997849v-23.783226H1012.989523V53.677419h48.997849v-38.537634h22.021505v38.537634h47.291183v20.094624h-47.291183V97.72043h47.291183v21.746237h-39.748817l50.429247 86.159139z"  horiz-adv-x="1255" />

    
    <glyph glyph-name="xingtaiduICON_sousuo--" unicode="&#58990;" d="M222.6944 673.2032A323.1488 323.1488 0 0 1 133.6832 384c19.2512 87.3728 64.512 172.7488 135.0144 243.3024C339.2512 697.8815999999999 424.6272 743.1168 512 762.3679999999999c-101.632 19.1488-210.688-10.5216-289.3056-89.1648zM989.44 73.88160000000005l-121.7024 121.7024a118.016 118.016 0 0 1-92.8 34.1248c114.4576 165.5552 97.92 394.3936-49.4848 541.824-165.9392 165.9904-435.0464 165.9904-601.0368 0-165.9392-165.9904-165.9392-435.1232 0-601.1136 147.4048-147.4304 376.064-163.84 541.7216-49.3824-2.56-33.28 8.8576-67.5328 34.1248-92.8l121.7024-121.728c46.08-45.9776 121.3696-45.9776 167.3472 0 46.208 45.9776 46.208 121.2928 0.128 167.3728zM676.096 219.904c-138.6752-138.6752-363.392-138.6752-502.016 0-138.6752 138.6752-138.6752 363.4432 0 502.1184 138.624 138.6752 363.3408 138.6752 502.016 0 138.6496-138.5728 138.6496-363.4432 0-502.1184z"  horiz-adv-x="1024" />

    
    <glyph glyph-name="mingxi" unicode="&#58955;" d="M702.582-86.028c-147.553 0-267.168 119.615-267.168 267.168S555.03 448.308 702.582 448.308 969.75 328.693 969.75 181.14 850.135-86.028 702.582-86.028z m0 467.539c-110.663 0-200.376-89.708-200.376-200.374 0-110.661 89.712-200.376 200.376-200.376s200.376 89.715 200.376 200.376c0 110.665-89.71 200.374-200.376 200.374z m89.056-267.163H653.573l25.887-43.655c2.556-4.312-3.558-12.408-13.655-18.083-10.095-5.677-20.354-6.783-22.91-2.471 0 0-51.632 78.031-51.632 86.473 0 0.788 0.367 1.454 0.447 2.22 0.055 0.642 0.138 1.263 0.398 1.968 2.019 10.217 10.607 18.076 21.418 18.076h5.555c1.748 0.245 3.215 0.18 4.598 0h167.959c12.296 0 22.264-9.968 22.264-22.264 0.001-12.295-9.967-22.263-22.263-22.263z m21.418 107.132c-2.019-10.217-10.607-18.076-21.418-18.076h-5.555c-1.748-0.245-3.215-0.18-4.598 0H613.526c-12.296 0-22.264 9.968-22.264 22.264s9.968 22.264 22.264 22.264h138.065l-25.887 43.655c-2.556 4.312 3.558 12.408 13.655 18.083 10.095 5.677 20.354 6.783 22.91 2.471 0 0 51.632-78.031 51.632-86.473 0-0.788-0.367-1.454-0.447-2.22-0.056-0.642-0.138-1.263-0.399-1.969zM680.318 626.419c12.296 0 22.264-9.968 22.264-22.264s-9.968-22.264-22.264-22.264H568.999c-12.296 0-22.264 9.968-22.264 22.264s9.968 22.264 22.264 22.264h111.319zM235.039 225.668h111.32c12.296 0 22.264-9.968 22.264-22.264s-9.968-22.264-22.264-22.264h-111.32c-12.296 0-22.264 9.968-22.264 22.264s9.968 22.264 22.264 22.264z m222.639 244.904c12.296 0 22.264-9.968 22.264-22.264s-9.968-22.264-22.264-22.264h-89.056v-89.056c0-12.296-9.968-22.264-22.264-22.264s-22.264 9.968-22.264 22.264v89.056h-89.056c-12.296 0-22.264 9.968-22.264 22.264s9.968 22.264 22.264 22.264h89.056v89.056h-89.056c-12.296 0-22.264 9.968-22.264 22.264s9.968 22.264 22.264 22.264h22.264v44.528c0 12.296 9.968 22.264 22.264 22.264s22.264-9.968 22.264-22.264v-44.528h89.056v44.528c0 12.296 9.968 22.264 22.264 22.264s22.264-9.968 22.264-22.264v-44.528h22.264c12.296 0 22.264-9.968 22.264-22.264s-9.968-22.264-22.264-22.264h-89.056v-89.056h89.056z m333.96 267.167c0 24.593-19.935 44.528-44.528 44.528H168.246c-24.593 0-44.528-19.935-44.528-44.528v-645.655c0-24.593 19.935-44.528 44.528-44.528h253.039c11.466-24.096 25.709-46.587 42.693-66.792H145.983c-49.183 0-89.056 39.872-89.056 89.056V760.003c0 49.183 39.872 89.056 89.056 89.056h623.391c49.183 0 89.056-39.872 89.056-89.056v-309.206c-20.884 12.099-43.203 21.935-66.792 28.959V737.74z"  horiz-adv-x="1024" />

    
    <glyph glyph-name="tixian1" unicode="&#58967;" d="M880.672 140.32l-61.344 61.344a32 32 0 0 0 45.248 45.28l118.08-118.08a32 32 0 0 0 0-45.216l-113.92-113.92a32 32 0 0 0-45.28 45.248L884.8 76.32H691.84a32 32 0 0 0 0 64h188.832zM453.664 533.664l-83.648 97.024a32 32 0 0 0 48.48 41.792L522.88 551.392 627.264 672.48a32 32 0 0 0 48.48-41.792l-83.648-97.024h112.32a32 32 0 1 0 0-64h-149.76v-107.008h192.16a32 32 0 1 0 0-64h-192.16v-181.472a32 32 0 0 0-64 0V298.656h-192a32 32 0 0 0 0 64h192V469.664H341.344a32 32 0 1 0 0 64h112.32z m535.52-201.504a32 32 0 1 0-63.648 7.008A409.162 409.162 0 0 1 928 384c0 223.872-181.472 405.344-405.344 405.344-223.84 0-405.312-181.472-405.312-405.344 0-223.872 181.44-405.344 405.312-405.344 42.688 0 84.416 6.592 124.16 19.36a32 32 0 0 0 19.616-60.928c-46.08-14.784-94.4-22.4-143.776-22.4-259.2 0-469.312 210.112-469.312 469.312 0 259.2 210.112 469.344 469.312 469.344C781.856 853.344 992 643.2 992 384c0-17.408-0.96-34.688-2.816-51.84z"  horiz-adv-x="1056" />

    


  </font>
</defs>
</svg>
